<svg width="70" height="65" viewBox="0 0 70 65" fill="none" xmlns="http://www.w3.org/2000/svg">
<g clip-path="url(#clip0_125_6)">
<path d="M33.0016 0.542587L30.8597 1.70499L4.46989 16.026L2.3279 17.1884C1.28854 17.754 0.517176 18.7065 0.183031 19.837C-0.151113 20.9675 -0.0207464 22.1836 0.545531 23.2187L20.1974 59.0414C20.766 60.0752 21.7237 60.8424 22.8603 61.1747C23.9969 61.5071 25.2197 61.3774 26.2603 60.8142L26.2659 60.8112L56.9285 44.1713L56.9341 44.1683C57.9734 43.6028 58.7448 42.6503 59.0789 41.5198C59.4131 40.3893 59.2827 39.1731 58.7164 38.1381L39.0646 2.31535C38.496 1.2816 37.5383 0.514396 36.4017 0.182053C35.265 -0.150289 34.0423 -0.0206293 33.0016 0.542587Z" fill="#F2F2F2"/>
<path d="M33.6175 1.66541L31.0805 3.04219L5.48075 16.9345L2.94375 18.3113C2.20359 18.714 1.65428 19.3923 1.41633 20.1974C1.17838 21.0024 1.27121 21.8685 1.67447 22.6055L21.3263 58.4283C21.7312 59.1645 22.4132 59.7108 23.2226 59.9475C24.0321 60.1841 24.9028 60.0918 25.6439 59.6907L25.6494 59.6877L56.3121 43.0479L56.3176 43.0448C57.0578 42.6421 57.6071 41.9638 57.845 41.1588C58.083 40.3537 57.9902 39.4877 57.5869 38.7506L37.9351 2.92784C37.5301 2.19169 36.8482 1.64535 36.0388 1.40868C35.2293 1.17201 34.3586 1.26434 33.6175 1.66541Z" fill="white"/>
<path d="M34.0405 12.7848L22.6045 18.9909C22.4313 19.0849 22.2276 19.1066 22.0382 19.0512C21.8489 18.9959 21.6894 18.868 21.5949 18.6957C21.5004 18.5233 21.4785 18.3207 21.5342 18.1324C21.5898 17.9441 21.7184 17.7855 21.8917 17.6915L33.3277 11.4854C33.5009 11.3914 33.7046 11.3697 33.894 11.4251C34.0833 11.4804 34.2428 11.6083 34.3373 11.7806C34.4319 11.953 34.4537 12.1556 34.398 12.3439C34.3424 12.5322 34.2138 12.6908 34.0405 12.7848Z" fill="#F2F2F2"/>
<path d="M37.938 13.5153L23.8074 21.1836C23.6342 21.2776 23.4305 21.2993 23.2411 21.244C23.0518 21.1886 22.8923 21.0607 22.7978 20.8884C22.7032 20.7161 22.6814 20.5135 22.7371 20.3252C22.7927 20.1368 22.9213 19.9782 23.0946 19.8842L37.2251 12.2159C37.3109 12.1694 37.4051 12.1401 37.5023 12.1297C37.5994 12.1193 37.6977 12.1281 37.7914 12.1555C37.8852 12.1829 37.9726 12.2285 38.0487 12.2895C38.1247 12.3505 38.188 12.4258 38.2348 12.5111C38.2816 12.5964 38.311 12.6901 38.3215 12.7867C38.3319 12.8834 38.3231 12.9811 38.2955 13.0744C38.2679 13.1676 38.2222 13.2545 38.1608 13.3302C38.0995 13.4059 38.0238 13.4688 37.938 13.5153Z" fill="#F2F2F2"/>
<path d="M17.9031 16.4075L7.35975 22.1291C7.27676 22.1742 7.21516 22.2502 7.18849 22.3404C7.16182 22.4306 7.17227 22.5277 7.21754 22.6102L11.7072 30.7942C11.7525 30.8768 11.8289 30.9381 11.9196 30.9646C12.0103 30.9911 12.1079 30.9807 12.1909 30.9357L22.7343 25.2141C22.8173 25.169 22.8789 25.093 22.9055 25.0028C22.9322 24.9126 22.9217 24.8155 22.8765 24.7329L18.3869 16.549C18.3415 16.4664 18.2651 16.4051 18.1744 16.3786C18.0837 16.3521 17.9861 16.3625 17.9031 16.4075Z" fill="#F2F2F2"/>
<path d="M39.7148 23.169L24.2033 31.5867C24.1175 31.6332 24.0233 31.6625 23.9262 31.6729C23.829 31.6833 23.7307 31.6745 23.637 31.6471C23.5432 31.6197 23.4558 31.5741 23.3798 31.5131C23.3037 31.4521 23.2404 31.3768 23.1936 31.2915C23.1468 31.2062 23.1174 31.1125 23.107 31.0159C23.0965 30.9192 23.1054 30.8215 23.1329 30.7282C23.1605 30.635 23.2063 30.5481 23.2676 30.4724C23.3289 30.3967 23.4047 30.3338 23.4904 30.2873L39.0019 21.8696C39.1752 21.7756 39.3789 21.7539 39.5682 21.8092C39.7576 21.8646 39.9171 21.9925 40.0116 22.1648C40.1061 22.3371 40.128 22.5397 40.0723 22.728C40.0166 22.9164 39.888 23.075 39.7148 23.169Z" fill="#F2F2F2"/>
<path d="M43.6122 23.8995L25.4062 33.7794C25.2329 33.8735 25.0292 33.8952 24.8399 33.8398C24.6505 33.7844 24.491 33.6565 24.3965 33.4842C24.302 33.3119 24.2802 33.1093 24.3358 32.921C24.3915 32.7327 24.5201 32.5741 24.6933 32.48L42.8994 22.6001C43.0727 22.506 43.2764 22.4843 43.4657 22.5397C43.6551 22.5951 43.8145 22.723 43.9091 22.8953C44.0036 23.0676 44.0254 23.2702 43.9698 23.4585C43.9141 23.6468 43.7855 23.8054 43.6122 23.8995Z" fill="#F2F2F2"/>
<path d="M18.2958 38.4805C20.0393 38.4805 21.4528 37.0747 21.4528 35.3405C21.4528 33.6064 20.0393 32.2006 18.2958 32.2006C16.5522 32.2006 15.1387 33.6064 15.1387 35.3405C15.1387 37.0747 16.5522 38.4805 18.2958 38.4805Z" fill="#F2F2F2"/>
<path d="M65.5314 15.303H30.5889C29.4041 15.3043 28.2683 15.773 27.4306 16.6062C26.5929 17.4394 26.1216 18.5691 26.1203 19.7474V60.5556C26.1216 61.7339 26.5929 62.8636 27.4306 63.6968C28.2683 64.53 29.4042 64.9987 30.5889 65H65.5314C66.7161 64.9987 67.852 64.53 68.6897 63.6968C69.5274 62.8636 69.9986 61.7339 70 60.5556V19.7474C69.9986 18.5691 69.5274 17.4394 68.6897 16.6062C67.852 15.773 66.7161 15.3043 65.5314 15.303Z" fill="#E6E6E6"/>
<path d="M65.5315 16.5824H30.5889C29.7452 16.5833 28.9364 16.9171 28.3398 17.5104C27.7433 18.1038 27.4077 18.9083 27.4067 19.7474V60.5555C27.4077 61.3947 27.7433 62.1991 28.3398 62.7925C28.9364 63.3858 29.7452 63.7196 30.5889 63.7205H65.5315C66.3752 63.7196 67.184 63.3858 67.7806 62.7925C68.3771 62.1991 68.7127 61.3947 68.7136 60.5555V19.7474C68.7127 18.9083 68.3771 18.1038 67.7806 17.5105C67.184 16.9171 66.3752 16.5833 65.5315 16.5824Z" fill="white"/>
<path d="M60.548 26.5449H47.5205C47.3231 26.5449 47.1339 26.4669 46.9943 26.3281C46.8548 26.1893 46.7764 26.001 46.7764 25.8048C46.7764 25.6085 46.8548 25.4202 46.9943 25.2814C47.1339 25.1426 47.3231 25.0646 47.5205 25.0646H60.548C60.6458 25.0645 60.7427 25.0836 60.8331 25.1207C60.9234 25.1579 61.0056 25.2124 61.0747 25.2811C61.1439 25.3499 61.1988 25.4315 61.2363 25.5213C61.2737 25.6112 61.293 25.7075 61.293 25.8048C61.293 25.902 61.2737 25.9983 61.2363 26.0882C61.1988 26.178 61.1439 26.2597 61.0747 26.3284C61.0056 26.3971 60.9234 26.4516 60.8331 26.4888C60.7427 26.5259 60.6458 26.545 60.548 26.5449Z" fill="#5B3AED"/>
<path d="M63.6176 29.0428H47.5205C47.3231 29.0428 47.1339 28.9648 46.9943 28.826C46.8548 28.6872 46.7764 28.499 46.7764 28.3027C46.7764 28.1064 46.8548 27.9181 46.9943 27.7793C47.1339 27.6405 47.3231 27.5626 47.5205 27.5626H63.6176C63.815 27.5626 64.0042 27.6405 64.1438 27.7793C64.2833 27.9181 64.3617 28.1064 64.3617 28.3027C64.3617 28.499 64.2833 28.6872 64.1438 28.826C64.0042 28.9648 63.815 29.0428 63.6176 29.0428Z" fill="#5B3AED"/>
<path d="M44.6375 22.0375H32.6269C32.5323 22.0375 32.4416 22.0749 32.3748 22.1414C32.3079 22.2079 32.2703 22.2981 32.2703 22.3921V31.7151C32.2703 31.8091 32.3079 31.8993 32.3748 31.9658C32.4416 32.0323 32.5323 32.0697 32.6269 32.0697H44.6375C44.7321 32.0697 44.8227 32.0323 44.8896 31.9658C44.9564 31.8993 44.994 31.8091 44.994 31.7151V22.3921C44.994 22.2981 44.9564 22.2079 44.8896 22.1414C44.8227 22.0749 44.732 22.0375 44.6375 22.0375Z" fill="#E6E6E6"/>
<path d="M35.9215 27.7624C35.9264 28.5494 35.6348 29.3098 35.104 29.8935C34.5788 30.4668 33.797 30.8469 33.008 30.6896C32.2815 30.5448 31.6911 29.9133 31.7648 29.1493C31.777 28.9838 31.8253 28.8229 31.9065 28.6779C31.9876 28.533 32.0995 28.4073 32.2345 28.3098C32.3694 28.2122 32.5242 28.1451 32.6879 28.1131C32.8516 28.0811 33.0203 28.0851 33.1823 28.1246C33.8725 28.3027 34.1475 29.292 33.5724 29.7564C33.4344 29.8678 33.2361 29.6729 33.3754 29.5605C33.7556 29.2535 33.6381 28.582 33.1793 28.4135C32.645 28.2175 32.079 28.6392 32.0405 29.1824C31.995 29.8265 32.4911 30.3116 33.0995 30.4258C33.7576 30.5493 34.4101 30.2143 34.8561 29.7518C35.3672 29.2149 35.6492 28.5018 35.6429 27.7624C35.6442 27.7265 35.6594 27.6925 35.6854 27.6675C35.7114 27.6426 35.7461 27.6286 35.7822 27.6286C35.8183 27.6286 35.853 27.6426 35.879 27.6675C35.905 27.6925 35.9202 27.7265 35.9215 27.7624Z" fill="#2F2E41"/>
<path d="M38.6415 29.5237C41.3861 29.5237 43.611 27.3108 43.611 24.5811C43.611 21.8514 41.3861 19.6385 38.6415 19.6385C35.897 19.6385 33.6721 21.8514 33.6721 24.5811C33.6721 27.3108 35.897 29.5237 38.6415 29.5237Z" fill="#5B3AED"/>
<path d="M38.3872 26.6901L38.3821 26.5054C38.7276 26.4958 39.0321 26.4743 39.261 26.308C39.3259 26.2581 39.3792 26.195 39.4174 26.1228C39.4555 26.0507 39.4776 25.9712 39.4821 25.8898C39.4862 25.84 39.4786 25.79 39.46 25.7437C39.4415 25.6973 39.4124 25.6558 39.3751 25.6224C39.2232 25.4948 38.9787 25.5361 38.8005 25.6174L38.6469 25.6875L38.9415 23.5458L39.1255 23.5709L38.8749 25.3926C39.117 25.3218 39.3413 25.3523 39.495 25.4814C39.554 25.5326 39.6002 25.5967 39.6302 25.6687C39.6602 25.7406 39.673 25.8185 39.6677 25.8962C39.6623 26.0056 39.6329 26.1125 39.5815 26.2094C39.5302 26.3063 39.4582 26.3908 39.3706 26.4571C39.0765 26.6709 38.6943 26.6815 38.3872 26.6901Z" fill="#2F2E41"/>
<path d="M41.0356 23.7279H40.0354V23.9126H41.0356V23.7279Z" fill="#2F2E41"/>
<path d="M37.8786 23.7279H36.8784V23.9126H37.8786V23.7279Z" fill="#2F2E41"/>
<path d="M35.8888 32.0697C36.2613 31.8347 36.6639 31.6505 37.0857 31.5221C37.0454 31.3798 37.0461 31.2291 37.0875 31.0871C37.1435 30.9078 37.2563 30.7512 37.4091 30.6409C37.5619 30.5305 37.7465 30.4723 37.9353 30.4748H39.1461C39.3352 30.4724 39.5201 30.5308 39.6732 30.6413C39.8262 30.7518 39.9394 30.9085 39.9957 31.088C40.0372 31.2297 40.0378 31.3801 39.9976 31.5221C40.4193 31.6506 40.8219 31.8348 41.1945 32.0697H35.8888Z" fill="#2F2E41"/>
<path d="M44.3339 22.7468C44.2433 22.6377 44.1319 22.5476 44.0061 22.4817C43.8957 22.4244 43.7731 22.3943 43.6486 22.394C43.4776 22.3961 43.3116 22.4516 43.1741 22.5528C42.7962 22.8188 42.5344 23.3923 42.5344 24.0563C42.5344 24.8893 42.9466 25.5801 43.4824 25.7002C43.537 25.7124 43.5927 25.7186 43.6486 25.7187C44.2624 25.7187 44.7629 24.9734 44.7629 24.0563C44.7629 23.5244 44.5948 23.0506 44.3339 22.7468Z" fill="#3F3D56"/>
<path d="M34.1274 22.5131H34.1265C34.0024 22.4365 33.8594 22.3952 33.7133 22.394C33.5888 22.3943 33.4662 22.4244 33.3558 22.4817C33.23 22.5476 33.1186 22.6377 33.0281 22.7468L33.0271 22.7477C32.7671 23.0515 32.5991 23.5253 32.5991 24.0563C32.5991 24.773 32.9036 25.3843 33.3307 25.618C33.4477 25.6832 33.5793 25.7178 33.7133 25.7187C33.7431 25.7187 33.7729 25.7168 33.8024 25.7131H33.8033C34.3753 25.6448 34.8275 24.9281 34.8275 24.0563C34.8275 23.3581 34.5369 22.7588 34.1274 22.5131Z" fill="#3F3D56"/>
<path d="M33.4003 25.4591C33.4225 25.4591 33.4442 25.4538 33.4639 25.4438C33.4836 25.4337 33.5006 25.4192 33.5135 25.4013C33.5263 25.3834 33.5348 25.3628 33.5381 25.341C33.5414 25.3193 33.5394 25.2971 33.5323 25.2762C33.2661 24.4889 33.1861 23.6511 33.2983 22.828C33.4106 22.0049 33.7122 21.2187 34.1796 20.5303C34.6471 19.842 35.2679 19.2701 35.9936 18.8592C36.7194 18.4483 37.5307 18.2093 38.3645 18.161C39.1982 18.1126 40.0319 18.2561 40.8008 18.5803C41.5698 18.9044 42.2532 19.4006 42.7979 20.0302C43.3427 20.6598 43.7342 21.4059 43.9419 22.2104C44.1497 23.0149 44.1681 23.8563 43.9958 24.669C43.9881 24.705 43.9952 24.7425 44.0153 24.7733C44.0355 24.804 44.0672 24.8256 44.1033 24.8332C44.1394 24.8408 44.1771 24.8338 44.2081 24.8137C44.239 24.7936 44.2607 24.7622 44.2683 24.7262C44.4496 23.8717 44.4304 22.9871 44.212 22.1412C43.9937 21.2953 43.5821 20.5108 43.0094 19.8488C42.4366 19.1868 41.7181 18.6651 40.9097 18.3243C40.1012 17.9834 39.2246 17.8325 38.3481 17.8834C37.4715 17.9343 36.6185 18.1856 35.8554 18.6177C35.0923 19.0498 34.4397 19.6511 33.9483 20.3749C33.4569 21.0986 33.1399 21.9254 33.0219 22.7908C32.904 23.6562 32.9884 24.537 33.2684 25.3648C33.2777 25.3923 33.2954 25.4161 33.3191 25.433C33.3428 25.45 33.3712 25.4591 33.4003 25.4591Z" fill="#3F3D56"/>
<path d="M41.1379 21.3787C41.3347 21.6459 41.2377 22.0059 41.0303 22.2362C40.7606 22.5359 40.3303 22.5549 39.9568 22.4992C39.5376 22.4368 39.093 22.2415 38.6686 22.3731C38.3069 22.4853 38.0489 22.8116 37.6731 22.8936C37.3399 22.9662 36.9414 22.87 36.8246 22.5167C36.7684 22.347 37.0373 22.2742 37.0932 22.4431C37.1687 22.6716 37.4951 22.6671 37.682 22.6038C37.9816 22.5023 38.2125 22.2555 38.507 22.1376C38.8542 21.9987 39.2309 22.0614 39.5844 22.1406C39.9176 22.2152 40.3011 22.3258 40.633 22.1865C40.8786 22.0833 41.074 21.7584 40.8974 21.5185C40.7913 21.3746 41.0329 21.2362 41.1379 21.3787Z" fill="#2F2E41"/>
<path d="M60.5284 38.3636H42.8582C42.7605 38.3636 42.6637 38.3445 42.5734 38.3073C42.4832 38.2701 42.4011 38.2156 42.332 38.1468C42.2629 38.0781 42.2081 37.9965 42.1707 37.9067C42.1333 37.8169 42.1141 37.7207 42.1141 37.6235C42.1141 37.5263 42.1333 37.43 42.1707 37.3402C42.2081 37.2505 42.2629 37.1689 42.332 37.1001C42.4011 37.0314 42.4832 36.9769 42.5734 36.9397C42.6637 36.9025 42.7605 36.8834 42.8582 36.8834H60.5284C60.7256 36.8836 60.9147 36.9617 61.0541 37.1004C61.1934 37.2392 61.2717 37.4273 61.2717 37.6235C61.2717 37.8196 61.1934 38.0078 61.0541 38.1465C60.9147 38.2853 60.7256 38.3634 60.5284 38.3636Z" fill="#E6E6E6"/>
<path d="M63.598 40.8615H42.8583C42.7605 40.8616 42.6636 40.8425 42.5732 40.8054C42.4829 40.7682 42.4007 40.7137 42.3315 40.645C42.2623 40.5762 42.2075 40.4946 42.17 40.4048C42.1326 40.3149 42.1133 40.2186 42.1133 40.1213C42.1133 40.0241 42.1326 39.9278 42.17 39.8379C42.2075 39.7481 42.2623 39.6664 42.3315 39.5977C42.4007 39.529 42.4829 39.4745 42.5732 39.4373C42.6636 39.4002 42.7605 39.3811 42.8583 39.3812H63.598C63.6958 39.3811 63.7927 39.4002 63.8831 39.4373C63.9734 39.4745 64.0556 39.529 64.1248 39.5977C64.1939 39.6664 64.2488 39.7481 64.2863 39.8379C64.3237 39.9278 64.343 40.0241 64.343 40.1213C64.343 40.2186 64.3237 40.3149 64.2863 40.4048C64.2488 40.4946 64.1939 40.5762 64.1248 40.645C64.0556 40.7137 63.9734 40.7682 63.8831 40.8054C63.7927 40.8425 63.6958 40.8616 63.598 40.8615Z" fill="#E6E6E6"/>
<path d="M60.5284 47.3414H42.8582C42.6609 47.3414 42.4716 47.2635 42.332 47.1247C42.1925 46.9859 42.1141 46.7976 42.1141 46.6013C42.1141 46.405 42.1925 46.2168 42.332 46.078C42.4716 45.9392 42.6609 45.8612 42.8582 45.8612H60.5284C60.7258 45.8612 60.915 45.9392 61.0546 46.078C61.1942 46.2168 61.2726 46.405 61.2726 46.6013C61.2726 46.7976 61.1942 46.9859 61.0546 47.1247C60.915 47.2635 60.7258 47.3414 60.5284 47.3414Z" fill="#E6E6E6"/>
<path d="M63.598 49.8394H42.8582C42.6609 49.8394 42.4716 49.7614 42.332 49.6226C42.1925 49.4838 42.1141 49.2955 42.1141 49.0992C42.1141 48.903 42.1925 48.7147 42.332 48.5759C42.4716 48.4371 42.6609 48.3591 42.8582 48.3591H63.598C63.7954 48.3591 63.9846 48.4371 64.1242 48.5759C64.2637 48.7147 64.3421 48.903 64.3421 49.0992C64.3421 49.2955 64.2637 49.4838 64.1242 49.6226C63.9846 49.7614 63.7954 49.8394 63.598 49.8394Z" fill="#E6E6E6"/>
<path d="M35.8647 41.9846C37.6082 41.9846 39.0217 40.5788 39.0217 38.8446C39.0217 37.1105 37.6082 35.7047 35.8647 35.7047C34.1211 35.7047 32.7076 37.1105 32.7076 38.8446C32.7076 40.5788 34.1211 41.9846 35.8647 41.9846Z" fill="#E6E6E6"/>
<path d="M35.8647 51.0351C37.6082 51.0351 39.0217 49.6293 39.0217 47.8951C39.0217 46.1609 37.6082 44.7551 35.8647 44.7551C34.1211 44.7551 32.7076 46.1609 32.7076 47.8951C32.7076 49.6293 34.1211 51.0351 35.8647 51.0351Z" fill="#E6E6E6"/>
<path d="M60.5284 56.3919H42.8582C42.6609 56.3919 42.4716 56.3139 42.332 56.1751C42.1925 56.0363 42.1141 55.8481 42.1141 55.6518C42.1141 55.4555 42.1925 55.2673 42.332 55.1285C42.4716 54.9897 42.6609 54.9117 42.8582 54.9117H60.5284C60.7258 54.9117 60.915 54.9897 61.0546 55.1285C61.1942 55.2673 61.2726 55.4555 61.2726 55.6518C61.2726 55.8481 61.1942 56.0363 61.0546 56.1751C60.915 56.3139 60.7258 56.3919 60.5284 56.3919Z" fill="#E6E6E6"/>
<path d="M63.598 58.8899H42.8582C42.6609 58.8899 42.4716 58.8119 42.332 58.6731C42.1925 58.5343 42.1141 58.346 42.1141 58.1497C42.1141 57.9534 42.1925 57.7652 42.332 57.6264C42.4716 57.4876 42.6609 57.4096 42.8582 57.4096H63.598C63.7954 57.4096 63.9846 57.4876 64.1242 57.6264C64.2637 57.7652 64.3421 57.9534 64.3421 58.1497C64.3421 58.346 64.2637 58.5343 64.1242 58.6731C63.9846 58.8119 63.7954 58.8899 63.598 58.8899Z" fill="#E6E6E6"/>
<path d="M35.8647 60.0856C37.6082 60.0856 39.0217 58.6798 39.0217 56.9456C39.0217 55.2115 37.6082 53.8057 35.8647 53.8057C34.1211 53.8057 32.7076 55.2115 32.7076 56.9456C32.7076 58.6798 34.1211 60.0856 35.8647 60.0856Z" fill="#E6E6E6"/>
</g>
<defs>
<clipPath id="clip0_125_6">
<rect width="70" height="65" fill="white"/>
</clipPath>
</defs>
</svg>
