<svg width="107" height="80" viewBox="0 0 107 80" fill="none" xmlns="http://www.w3.org/2000/svg">
<g clip-path="url(#clip0_125_39)">
<path d="M3.91816 61.3997C4.53083 55.1587 8.23389 48.9289 14.1259 46.7498C11.9487 53.2137 12.1327 60.2379 14.6454 66.5795C15.6233 69.0217 16.9658 71.6364 16.1715 74.144C15.6772 75.7044 14.4003 76.9216 12.9576 77.6994C11.5149 78.4772 9.90156 78.8721 8.30832 79.2593L7.99979 79.5278C5.30648 73.8621 3.30548 67.6407 3.91816 61.3997Z" fill="#F0F0F0"/>
<path d="M14.188 46.8658C10.8612 50.7844 8.76743 55.789 8.40134 60.9196C8.32219 62.0288 8.33863 63.1608 8.60947 64.2451C8.88161 65.2999 9.43182 66.2628 10.2029 67.0336C10.9075 67.7668 11.7132 68.4353 12.2269 69.3266C12.7683 70.2661 12.8164 71.3483 12.4893 72.3697C12.0889 73.6194 11.2626 74.651 10.4193 75.6318C9.48298 76.7208 8.49318 77.8371 8.12022 79.2583C8.07503 79.4305 7.80994 79.3504 7.85506 79.1785C8.50395 76.706 10.8546 75.2499 11.9352 73.01C12.4394 71.9648 12.6311 70.7617 12.1047 69.6859C11.6444 68.7452 10.8141 68.0551 10.0943 67.319C9.33853 66.546 8.7522 65.6915 8.43445 64.6503C8.10941 63.5852 8.04858 62.4514 8.09896 61.345C8.23196 58.8371 8.75928 56.3656 9.66158 54.021C10.6765 51.3396 12.1436 48.8511 13.9994 46.6634C14.1143 46.528 14.3021 46.7314 14.188 46.8658Z" fill="white"/>
<path d="M8.43219 59.2456C7.5713 59.0606 6.80434 58.5762 6.26827 57.879C5.7322 57.1817 5.46195 56.317 5.50576 55.4393C5.50787 55.4035 5.52382 55.3699 5.55025 55.3456C5.57667 55.3214 5.61151 55.3083 5.64741 55.3091C5.68332 55.31 5.71749 55.3247 5.74273 55.3502C5.76796 55.3757 5.78229 55.41 5.78269 55.4458C5.74038 56.2631 5.99221 57.0686 6.49272 57.7168C6.99323 58.3651 7.70946 58.8135 8.51214 58.981C8.68653 59.0176 8.60558 59.282 8.43219 59.2456Z" fill="white"/>
<path d="M9.79666 66.7089C11.3177 65.748 12.42 64.2503 12.8836 62.5144C12.9294 62.3423 13.1945 62.4223 13.1488 62.5941C12.6629 64.3997 11.5127 65.956 9.92762 66.9524C9.77648 67.0473 9.64634 66.8032 9.79666 66.7089Z" fill="white"/>
<path d="M10.9402 51.5946C11.2584 51.7354 11.6066 51.7952 11.9536 51.7686C12.3007 51.7419 12.6356 51.6297 12.9284 51.4419C13.0783 51.3452 13.2083 51.5894 13.0594 51.6855C12.7349 51.8914 12.3648 52.0149 11.9815 52.0452C11.5981 52.0755 11.2132 52.0116 10.8603 51.8592C10.8258 51.8476 10.797 51.8234 10.7798 51.7914C10.7626 51.7594 10.7583 51.7221 10.7677 51.687C10.7784 51.652 10.8026 51.6227 10.8349 51.6054C10.8672 51.5881 10.9051 51.5842 10.9402 51.5946Z" fill="white"/>
<path d="M32.537 57.3894C32.4452 57.4524 32.3533 57.5155 32.2614 57.5809C31.0309 58.4351 29.8719 59.3876 28.7959 60.4291C28.7115 60.5083 28.6271 60.5899 28.545 60.6713C25.9796 63.2081 23.9084 66.1982 22.4367 69.4895C21.8523 70.7997 21.3686 72.1524 20.9899 73.5359C20.4669 75.4466 20.0522 77.5597 18.9595 79.1399C18.8473 79.306 18.725 79.4651 18.5931 79.6161L8.35193 79.8826C8.32835 79.8715 8.30472 79.8628 8.28103 79.8517L7.87262 79.881C7.88716 79.8083 7.90381 79.7332 7.91835 79.6605C7.92661 79.6183 7.93715 79.576 7.94541 79.5338C7.95164 79.5056 7.95798 79.4775 7.96198 79.4517C7.96402 79.4423 7.96617 79.4329 7.96827 79.4259C7.97228 79.4001 7.97874 79.3766 7.98281 79.3531C8.0747 78.9331 8.16971 78.5129 8.26784 78.0927C8.26778 78.0904 8.26778 78.0904 8.27 78.088C9.02587 74.8879 10.0561 71.7227 11.5349 68.8141C11.5795 68.7266 11.6238 68.6368 11.673 68.5492C12.3469 67.2418 13.1267 65.9916 14.0047 64.8111C14.4876 64.1662 15.0028 63.5461 15.5485 62.9532C16.9613 61.424 18.6065 60.126 20.4235 59.1069C24.0461 57.076 28.2792 56.2238 32.2355 57.3039C32.3367 57.3316 32.4358 57.3593 32.537 57.3894Z" fill="#F0F0F0"/>
<path d="M32.5174 57.5197C27.4971 58.6496 22.8061 61.3875 19.4185 65.264C18.6861 66.102 18.0163 67.0158 17.5784 68.0443C17.1593 69.05 17.0178 70.1494 17.1684 71.2282C17.2886 72.2369 17.5286 73.2548 17.401 74.2751C17.2666 75.3505 16.6521 76.2435 15.7747 76.8624C14.7011 77.6197 13.4189 77.9469 12.1539 78.2233C10.7493 78.5303 9.28552 78.8269 8.13036 79.7375C7.9904 79.8478 7.82703 79.6247 7.96679 79.5145C9.97657 77.9302 12.7318 78.18 14.946 77.0408C15.9791 76.5093 16.858 75.6638 17.0867 74.4886C17.2867 73.4609 17.0401 72.411 16.9095 71.3907C16.7724 70.3194 16.8198 69.2849 17.1942 68.2627C17.5772 67.2169 18.2127 66.2751 18.9204 65.422C20.5396 63.4994 22.4517 61.8429 24.5866 60.5131C27.0147 58.9819 29.6873 57.8765 32.4889 57.2447C32.6623 57.2057 32.6896 57.4809 32.5174 57.5197Z" fill="white"/>
<path d="M20.453 63.9459C19.8773 63.2809 19.5571 62.4334 19.5498 61.5546C19.5424 60.6758 19.8483 59.8229 20.4128 59.1484C20.5275 59.0123 20.7448 59.1838 20.6299 59.3201C20.1031 59.9472 19.8182 60.7417 19.8268 61.56C19.8353 62.3783 20.1367 63.1666 20.6765 63.7827C20.7937 63.9167 20.5695 64.0792 20.453 63.9459Z" fill="white"/>
<path d="M17.04 70.7247C18.8341 70.8714 20.6178 70.3378 22.0353 69.2304C22.1756 69.1206 22.339 69.3437 22.1989 69.4534C20.7216 70.6031 18.8643 71.1546 16.9976 70.9978C16.8197 70.9828 16.863 70.7097 17.04 70.7247Z" fill="white"/>
<path d="M27.0713 59.344C27.2404 59.6476 27.4824 59.9046 27.7755 60.0918C28.0687 60.2791 28.4038 60.3907 28.7509 60.4167C28.9289 60.4295 28.8854 60.7026 28.7086 60.6899C28.3252 60.6593 27.9552 60.5356 27.6309 60.3294C27.3065 60.1233 27.0377 59.841 26.8479 59.5073C26.8273 59.4773 26.819 59.4407 26.8246 59.4048C26.8301 59.3689 26.8492 59.3365 26.8778 59.3141C26.9075 59.2927 26.9445 59.2838 26.9807 59.2894C27.017 59.295 27.0495 59.3146 27.0713 59.344Z" fill="white"/>
<path d="M92.6436 5.47578C92.4907 5.0252 90.5732 3.49356 91.7482 3.23612L92.7118 4.51832L97.1419 0.0973511L97.5874 0.541998L92.6436 5.47578Z" fill="#5B3AED"/>
<path d="M92.6436 20.5089C92.4907 20.0583 90.5732 18.5267 91.7482 18.2693L92.7118 19.5515L97.1419 15.1305L97.5874 15.5751L92.6436 20.5089Z" fill="#5B3AED"/>
<path d="M92.6436 35.7568C92.4907 35.3062 90.5732 33.7746 91.7482 33.5171L92.7118 34.7993L97.1419 30.3784L97.5874 30.823L92.6436 35.7568Z" fill="#5B3AED"/>
<path d="M88.5642 23.4293C89.3192 23.4293 89.9313 22.8185 89.9313 22.065C89.9313 21.3116 89.3192 20.7008 88.5642 20.7008C87.8092 20.7008 87.1972 21.3116 87.1972 22.065C87.1972 22.8185 87.8092 23.4293 88.5642 23.4293Z" fill="#3F3D56"/>
<path d="M88.5642 8.55905C89.3192 8.55905 89.9313 7.94826 89.9313 7.19481C89.9313 6.44136 89.3192 5.83057 88.5642 5.83057C87.8092 5.83057 87.1972 6.44136 87.1972 7.19481C87.1972 7.94826 87.8092 8.55905 88.5642 8.55905Z" fill="#3F3D56"/>
<path d="M123.628 4.05701H101.619V4.32986H123.628V4.05701Z" fill="#3F3D56"/>
<path d="M89.2478 39.281C90.0027 39.281 90.6148 38.6702 90.6148 37.9167C90.6148 37.1633 90.0027 36.5525 89.2478 36.5525C88.4928 36.5525 87.8807 37.1633 87.8807 37.9167C87.8807 38.6702 88.4928 39.281 89.2478 39.281Z" fill="#3F3D56"/>
<path d="M123.628 19.0901H101.619V19.363H123.628V19.0901Z" fill="#3F3D56"/>
<path d="M123.628 34.338H101.619V34.6109H123.628V34.338Z" fill="#3F3D56"/>
<path d="M96.0963 37.7896H89.2612V30.8319H93.9091V31.1048H89.5346V37.5167H95.8229V34.3789H96.0963V37.7896Z" fill="#3F3D56"/>
<path d="M96.0963 22.51H89.2612V15.5524H93.9091V15.8252H89.5346V22.2372H95.8229V19.0994H96.0963V22.51Z" fill="#3F3D56"/>
<path d="M96.0963 6.95764H89.2612V0H93.9091V0.272849H89.5346V6.68479H95.8229V3.54703H96.0963V6.95764Z" fill="#3F3D56"/>
<path d="M51.4691 24.7981C51.4691 24.7981 49.6423 32.4953 51.875 32.4953C54.1077 32.4953 59.385 23.7853 59.385 23.7853L57.5582 21.5571L54.2794 26.1L54.1077 23.7853L51.4691 24.7981Z" fill="#A0616A"/>
<path d="M58.8982 24.1199C59.8797 24.1199 60.6754 23.3259 60.6754 22.3464C60.6754 21.3669 59.8797 20.5729 58.8982 20.5729C57.9167 20.5729 57.1211 21.3669 57.1211 22.3464C57.1211 23.3259 57.9167 24.1199 58.8982 24.1199Z" fill="#A0616A"/>
<path d="M49.9203 77.2227L52.2856 77.2226L53.4111 68.1168L49.9197 68.117L49.9203 77.2227Z" fill="#A0616A"/>
<path d="M49.8369 79.6854L57.1112 79.6851V79.5933C57.1112 78.8439 56.8129 78.1252 56.2819 77.5954C55.7509 77.0655 55.0308 76.7678 54.2799 76.7677H54.2797L52.9509 75.7617L50.4718 76.7679L49.8368 76.7679L49.8369 79.6854Z" fill="#2F2E41"/>
<path d="M24.4749 74.2774L26.5915 75.3314L31.673 67.6855L28.5491 66.1298L24.4749 74.2774Z" fill="#A0616A"/>
<path d="M23.2983 76.4438L29.8072 79.6855L29.8483 79.6033C30.1835 78.9328 30.2382 78.1568 30.0002 77.4461C29.7622 76.7353 29.2511 76.148 28.5793 75.8133L28.5791 75.8132L27.8404 74.3209L25.1719 74.1163L24.6037 73.8334L23.2983 76.4438Z" fill="#2F2E41"/>
<path d="M77.8998 79.6943H0V80H77.8998V79.6943Z" fill="#CCCCCC"/>
<path d="M34.6265 38.762C34.6265 38.762 33.6811 50.1055 33.4782 52.5362C33.339 54.0599 32.9977 55.5584 32.4633 56.9924C32.4633 56.9924 32.0574 57.8027 32.0574 58.6129L27.4567 66.9572C27.4567 66.9572 26.0508 67.9884 26.2538 68.7987C26.4567 69.6089 25.4061 70.0949 25.4061 70.0949L30.2511 71.0268C30.2511 71.0268 30.0481 70.4191 30.657 70.2166C31.2659 70.014 31.7506 68.2571 31.7506 68.2571L38.5524 57.195L43.4237 47.0671C43.4237 47.0671 46.2653 56.1822 46.8743 57.195C46.8743 57.195 49.1069 68.5383 49.5129 69.5511C49.9188 70.5639 50.1218 70.5639 49.9188 70.969C49.7159 71.3741 49.7159 71.7792 49.9188 71.9818C50.1218 72.1843 53.9783 71.9818 53.9783 71.9818L52.9634 57.6001L51.1367 40.3826L41.8 37.5468L34.6265 38.762Z" fill="#2F2E41"/>
<path d="M43.7676 11.6823C46.1216 11.6823 48.03 9.77781 48.03 7.42854C48.03 5.07926 46.1216 3.1748 43.7676 3.1748C41.4135 3.1748 39.5052 5.07926 39.5052 7.42854C39.5052 9.77781 41.4135 11.6823 43.7676 11.6823Z" fill="#A0616A"/>
<path d="M51.5426 17.8986L46.4685 14.8306C46.4685 14.8306 46.3278 12.9255 44.8821 12.8358C44.1563 12.7908 43.067 12.722 41.4325 12.6168C41.087 12.5946 40.8539 14.4807 40.458 14.4551L35.1019 15.873L35.9138 29.647C35.9138 29.647 34.696 35.1161 35.1019 36.1289C35.5079 37.1417 34.0871 37.5468 34.493 37.7493C34.8989 37.9519 34.493 39.3698 34.493 39.3698C34.493 39.3698 42.4089 43.421 51.1367 40.3826L50.3248 37.7493C50.4353 37.4051 50.456 37.0385 50.385 36.684C50.3139 36.3296 50.1535 35.9991 49.9188 35.7237C49.9188 35.7237 50.7307 34.5084 49.7159 33.4956C49.7159 33.4956 50.1218 31.6726 49.1069 30.8623L48.904 28.0265L49.5129 26.6086L51.5426 17.8986Z" fill="#E6E6E6"/>
<path d="M40.0689 9.85855L39.9498 9.58237C39.9344 9.54667 38.427 5.99044 39.7631 3.79686C40.3816 2.78134 41.5063 2.20799 43.1057 2.09289C45.6084 1.9123 47.3212 2.50475 48.198 3.85255C48.3451 4.08097 48.4277 4.34471 48.4373 4.61603C48.4468 4.88735 48.3829 5.15622 48.2524 5.39439C48.1218 5.63256 47.9293 5.83121 47.6952 5.96947C47.4611 6.10773 47.194 6.18048 46.9219 6.18008H46.8883L46.4284 5.58423L46.4017 5.64218C46.2352 6.00163 45.8529 6.1984 45.405 6.1553C45.3289 6.14985 45.2614 6.21546 45.2072 6.35588C45.189 6.41731 45.1545 6.4727 45.1074 6.51624C45.0603 6.55979 45.0024 6.58988 44.9396 6.60335C44.6087 6.66763 44.1371 6.2517 43.926 6.0444C43.9178 6.09211 43.8995 6.13752 43.8723 6.17756C43.845 6.2176 43.8095 6.25133 43.768 6.27648C43.5456 6.40458 43.1993 6.23725 43.0999 6.18395C42.3082 6.35182 41.7957 6.30692 41.5762 6.05066C41.4273 7.10162 41.1079 8.99331 40.7248 9.09816C40.6848 9.10735 40.6428 9.10344 40.6052 9.08702C40.5675 9.0706 40.5362 9.04254 40.5157 9.00697C40.4235 8.88746 40.3411 8.82791 40.2896 8.84463C40.165 8.88419 40.0914 9.29374 40.0809 9.55806L40.0689 9.85855Z" fill="#2F2E41"/>
<path d="M49.3099 18.1012L51.3347 17.7729C52.7932 19.1714 53.7867 20.9828 54.1812 22.9626C54.7901 26.2035 54.9931 26.8112 54.9931 26.8112L50.1218 28.0265L47.4832 22.9626L49.3099 18.1012Z" fill="#E6E6E6"/>
<path d="M40.3255 22.3166L39.0742 38.1465L71.0058 40.6602L72.2571 24.8304L40.3255 22.3166Z" fill="white"/>
<path d="M43.7369 23.5431C42.9555 22.9861 41.9633 22.9459 41.5844 22.9539C41.7 23.3141 42.0593 24.2379 42.8407 24.795C43.6241 25.3533 44.615 25.3924 44.9934 25.3846C44.8778 25.0245 44.5185 24.1003 43.7369 23.5431Z" fill="#6C63FF"/>
<path d="M46.8197 33.616L41.6924 33.2123C41.5409 33.2004 41.3885 33.2184 41.244 33.2652C41.0994 33.312 40.9656 33.3868 40.85 33.4853C40.7344 33.5838 40.6394 33.704 40.5704 33.8391C40.5014 33.9742 40.4597 34.1216 40.4477 34.2728C40.4358 34.424 40.4538 34.576 40.5007 34.7203C40.5477 34.8645 40.6226 34.9981 40.7213 35.1135C40.82 35.2288 40.9404 35.3236 41.0758 35.3925C41.2112 35.4614 41.3589 35.503 41.5104 35.5149L46.6377 35.9185C46.9436 35.9426 47.2467 35.8444 47.4801 35.6456C47.7135 35.4467 47.8582 35.1634 47.8823 34.8581C47.9065 34.5527 47.8081 34.2503 47.6088 34.0174C47.4095 33.7844 47.1256 33.64 46.8197 33.616Z" fill="#6C63FF"/>
<path d="M70.9982 23.2917L42.2511 21.0284C41.9167 21.0022 41.5804 21.0419 41.2615 21.1453C40.9425 21.2487 40.647 21.4138 40.392 21.6312C40.1369 21.8486 39.9273 22.114 39.775 22.4122C39.6227 22.7104 39.5308 23.0357 39.5045 23.3694L38.3989 37.3461C38.3458 38.0202 38.5631 38.6878 39.003 39.202C39.4429 39.7163 40.0695 40.0351 40.745 40.0885L69.4921 42.3518C69.8265 42.378 70.1628 42.3383 70.4817 42.2349C70.8007 42.1315 71.0962 41.9664 71.3512 41.749C71.6063 41.5316 71.8159 41.2662 71.9682 40.968C72.1205 40.6698 72.2124 40.3445 72.2387 40.0108L73.2893 26.7265L73.3105 26.455L73.3439 26.0327C73.3703 25.699 73.3305 25.3634 73.2268 25.0451C73.1232 24.7268 72.9578 24.4319 72.7399 24.1774C72.5221 23.9229 72.2562 23.7136 71.9574 23.5617C71.6585 23.4097 71.3326 23.318 70.9982 23.2917ZM70.1494 35.4523L69.9672 37.7549C69.9339 38.1616 69.7406 38.5386 69.4296 38.8035C69.1186 39.0684 68.7151 39.1996 68.3074 39.1684L64.4615 38.866C64.054 38.8328 63.6762 38.6399 63.4108 38.3295C63.1454 38.0191 63.0139 37.6164 63.0452 37.2096L63.2273 34.9069C63.2608 34.5003 63.4541 34.1234 63.7651 33.8585C64.0761 33.5937 64.4795 33.4625 64.8871 33.4935L68.7317 33.7962C69.1392 33.8296 69.5169 34.0224 69.7825 34.3327C70.0481 34.6429 70.18 35.0454 70.1494 35.4523ZM40.1933 34.2516C40.2231 33.879 40.3998 33.5334 40.6847 33.2907C40.9695 33.0479 41.3392 32.9279 41.7126 32.9568L46.8397 33.3607C47.0249 33.375 47.2055 33.4255 47.3711 33.5095C47.5368 33.5934 47.6842 33.7091 47.805 33.85C47.9258 33.9908 48.0176 34.154 48.0751 34.3303C48.1327 34.5065 48.1549 34.6924 48.1404 34.8772C48.126 35.062 48.0752 35.2422 47.9909 35.4074C47.9067 35.5726 47.7906 35.7197 47.6494 35.8401C47.5082 35.9605 47.3446 36.052 47.1679 36.1093C46.9912 36.1666 46.805 36.1886 46.6198 36.1741L46.6172 36.1747L41.4901 35.7708C41.3049 35.7562 41.1244 35.7053 40.959 35.621C40.7936 35.5367 40.6464 35.4207 40.5259 35.2796C40.4055 35.1385 40.3141 34.9751 40.257 34.7987C40.1999 34.6223 40.1783 34.4364 40.1933 34.2516ZM41.2909 22.8627L41.2558 22.7195L41.4033 22.706C41.461 22.6999 42.8249 22.5777 43.8865 23.3345C44.9482 24.0913 45.2737 25.4192 45.2879 25.4747L45.3216 25.6182L45.1745 25.633C44.9656 25.6485 44.7558 25.6471 44.5471 25.6288C43.8834 25.5901 43.2423 25.374 42.6909 25.0032C41.6293 24.2464 41.3037 22.9185 41.2909 22.8627Z" fill="#5B3AED"/>
<path d="M65.8363 36.9794L64.1699 36.8482C64.0511 36.839 63.9334 36.8773 63.8428 36.9547C63.7522 37.032 63.6961 37.1421 63.6867 37.2607C63.6773 37.3793 63.7155 37.4967 63.7928 37.5873C63.8701 37.6778 63.9803 37.7341 64.0991 37.7436L65.7655 37.8748C65.8844 37.884 66.002 37.8457 66.0926 37.7683C66.1832 37.691 66.2394 37.581 66.2488 37.4624C66.2581 37.3437 66.22 37.2263 66.1426 37.1357C66.0653 37.0452 65.9551 36.9889 65.8363 36.9794Z" fill="#6C63FF"/>
<path d="M68.9127 37.2216L67.2463 37.0904C67.1275 37.0814 67.01 37.1197 66.9194 37.197C66.8289 37.2744 66.7728 37.3844 66.7634 37.5029C66.754 37.6215 66.7922 37.7389 66.8694 37.8294C66.9467 37.92 67.0568 37.9762 67.1756 37.9859L68.8419 38.1171C68.9608 38.1261 69.0783 38.0878 69.1688 38.0104C69.2594 37.9331 69.3155 37.8231 69.3248 37.7046C69.3342 37.586 69.2961 37.4686 69.2188 37.378C69.1416 37.2875 69.0315 37.2312 68.9127 37.2216Z" fill="#6C63FF"/>
<path d="M65.9273 35.8281L64.2609 35.6969C64.1421 35.6879 64.0245 35.7262 63.934 35.8035C63.8435 35.8809 63.7874 35.9909 63.778 36.1094C63.7686 36.228 63.8068 36.3454 63.884 36.4359C63.9613 36.5265 64.0714 36.5827 64.1901 36.5924L65.8565 36.7236C65.9754 36.7327 66.093 36.6944 66.1836 36.6171C66.2742 36.5397 66.3304 36.4297 66.3398 36.3111C66.3491 36.1925 66.311 36.075 66.2336 35.9844C66.1563 35.8939 66.0461 35.8377 65.9273 35.8281Z" fill="#6C63FF"/>
<path d="M69.0037 36.0703L67.3373 35.9391C67.2185 35.9299 67.1008 35.9682 67.0102 36.0456C66.9196 36.1229 66.8635 36.2329 66.8541 36.3515C66.8447 36.4701 66.8829 36.5876 66.9602 36.6782C67.0376 36.7687 67.1477 36.825 67.2666 36.8345L68.9329 36.9657C69.0518 36.9749 69.1694 36.9366 69.2601 36.8592C69.3507 36.7819 69.4068 36.6718 69.4162 36.5532C69.4256 36.4346 69.3874 36.3172 69.3101 36.2266C69.2327 36.136 69.1226 36.0798 69.0037 36.0703Z" fill="#6C63FF"/>
<path d="M66.0183 34.6768L64.352 34.5456C64.2331 34.5365 64.1154 34.5748 64.0248 34.6521C63.9342 34.7295 63.8781 34.8395 63.8687 34.9581C63.8593 35.0767 63.8975 35.1942 63.9748 35.2848C64.0522 35.3753 64.1623 35.4315 64.2812 35.4411L65.9475 35.5723C66.0664 35.5813 66.1839 35.543 66.2745 35.4657C66.365 35.3883 66.4211 35.2783 66.4305 35.1598C66.4398 35.0412 66.4017 34.9238 66.3244 34.8333C66.2472 34.7427 66.1371 34.6865 66.0183 34.6768Z" fill="#6C63FF"/>
<path d="M69.0947 34.919L67.4284 34.7878C67.3095 34.7787 67.192 34.8171 67.1014 34.8944C67.0109 34.9717 66.9548 35.0817 66.9454 35.2003C66.9361 35.3189 66.9742 35.4363 67.0514 35.5268C67.1287 35.6174 67.2388 35.6736 67.3576 35.6833L69.0239 35.8144C69.1428 35.8235 69.2603 35.7852 69.3509 35.7078C69.4414 35.6305 69.4975 35.5205 69.5069 35.4019C69.5162 35.2834 69.4781 35.166 69.4009 35.0754C69.3236 34.9849 69.2135 34.9286 69.0947 34.919Z" fill="#6C63FF"/>
<path d="M39.0772 27.7794L39.0558 28.0515L72.8011 30.697L72.8226 30.4249L39.0772 27.7794Z" fill="white"/>
<path d="M73.3105 26.455L73.2893 26.7265L72.1149 26.6345L59.6021 25.6537L59.6247 25.3819L72.1361 26.3631L73.3105 26.455Z" fill="#3F3D56"/>
<path d="M32.0573 23.5703C32.0573 23.5703 30.2306 31.2675 32.4633 31.2675C34.696 31.2675 39.9732 22.5575 39.9732 22.5575L38.1465 20.3293L34.8677 24.8723L34.696 22.5575L32.0573 23.5703Z" fill="#A0616A"/>
<path d="M39.4865 22.8921C40.468 22.8921 41.2636 22.098 41.2636 21.1185C41.2636 20.1391 40.468 19.345 39.4865 19.345C38.505 19.345 37.7094 20.1391 37.7094 21.1185C37.7094 22.098 38.505 22.8921 39.4865 22.8921Z" fill="#A0616A"/>
<path d="M36.5805 17.0884L35.3627 15.873C35.3627 15.873 32.927 17.291 32.7241 18.7089C32.5211 20.1268 31.5062 24.5831 31.5062 24.5831L35.2612 24.8869L36.479 23.0639L36.5805 17.0884Z" fill="#E6E6E6"/>
</g>
<defs>
<clipPath id="clip0_125_39">
<rect width="107" height="80" fill="white"/>
</clipPath>
</defs>
</svg>
