<svg width="93" height="77" viewBox="0 0 93 77" fill="none" xmlns="http://www.w3.org/2000/svg">
<path d="M36.3885 11.6425H34.703L34.5118 13.7614H36.3885V11.6425Z" fill="#ED9DA0"/>
<path d="M35.9458 8.32292C34.9644 8.24621 34.113 9.07067 34.0442 10.1644C33.9753 11.2581 34.7151 12.207 35.6966 12.2837C36.678 12.3604 37.5294 11.536 37.5982 10.4422C37.667 9.34848 36.9273 8.39964 35.9458 8.32292Z" fill="#ED9DA0"/>
<path d="M35.2148 7.34066C35.2077 7.32031 35.1953 7.30279 35.1792 7.29035C35.1631 7.27791 35.144 7.27112 35.1245 7.27086C35.9415 7.28017 36.7913 7.4531 37.4409 8.00577C37.5899 8.15112 37.7496 8.28235 37.9183 8.39806C37.9265 8.40296 37.9334 8.41014 37.9384 8.41891C37.9434 8.42768 37.9463 8.43773 37.9467 8.4481C37.9472 8.45847 37.9452 8.46879 37.941 8.47807C37.9369 8.48735 37.9306 8.49526 37.9229 8.50103L37.9021 8.51668C37.8937 8.52284 37.8871 8.53144 37.8829 8.54152C37.8787 8.55161 37.8771 8.5628 37.8782 8.57386C37.8794 8.58491 37.8832 8.5954 37.8894 8.60416C37.8955 8.61293 37.9037 8.61963 37.9131 8.62353C37.9227 8.62765 37.9311 8.63476 37.9372 8.64401C37.9434 8.65326 37.947 8.66427 37.9477 8.67575C37.9484 8.68723 37.9462 8.69869 37.9412 8.7088C37.9363 8.7189 37.9289 8.72722 37.9198 8.73277L37.7622 8.82982C37.7543 8.83466 37.7476 8.84164 37.7427 8.85011C37.7379 8.85858 37.735 8.86827 37.7344 8.8783C37.7337 8.88833 37.7354 8.89838 37.7391 8.90752C37.7429 8.91666 37.7486 8.92461 37.7559 8.93063C37.7681 8.94045 37.781 8.94911 37.7945 8.95652C37.803 8.96083 37.8103 8.9675 37.8157 8.97587C37.8212 8.98424 37.8246 8.99403 37.8257 9.00431C37.8268 9.01458 37.8255 9.02499 37.8219 9.03454C37.8183 9.04408 37.8126 9.05244 37.8052 9.0588C37.7358 9.11857 37.6804 9.19639 37.6441 9.28546C37.5912 9.43088 37.5585 9.58449 37.5473 9.74093C37.5094 9.51184 37.2973 9.36213 37.09 9.33228C36.8809 9.32135 36.6716 9.34499 36.4687 9.40244C36.0198 9.48746 35.5602 9.47128 35.1171 9.35484C35.2478 9.70718 35.0939 10.1033 34.9425 10.4452L34.5369 10.2127C33.9852 9.80592 34.2894 11.3664 34.4907 11.5929C34.0408 11.7275 33.0116 9.75748 33.4256 9.07312C33.641 8.71706 33.5347 8.22791 33.9346 7.90495C34.1338 7.70232 34.4966 7.82771 34.6967 7.66202C34.7754 7.59686 34.6741 7.39802 34.7788 7.36451C34.9234 7.3447 35.0692 7.33673 35.2148 7.34066Z" fill="#2F2E41"/>
<path d="M36.8455 12.696L37.2401 13.4111L39.7188 14.4173L39.5154 21.2806L39.2941 22.007L39.4762 22.6086L39.1582 23.088C39.5282 23.4115 39.5953 23.775 39.43 24.1694L38.3409 24.5385C38.3409 24.5385 32.225 25.6293 32.6768 24.5263C33.1704 23.3211 33.099 19.881 31.7326 18.1467C30.5726 16.674 31.261 14.5919 31.261 14.5919L33.7274 13.5559L34.6157 12.8703L36.8455 12.696Z" fill="#3F3D56"/>
<path d="M25.6605 18.7579C25.7285 18.8664 25.817 18.9569 25.9198 19.0232C26.0225 19.0894 26.1371 19.1297 26.2553 19.1413C26.3736 19.1529 26.4927 19.1354 26.6042 19.0902C26.7158 19.045 26.8171 18.973 26.901 18.8794L29.4997 20.2807L29.3021 18.6236L26.8647 17.5469C26.7142 17.4003 26.5206 17.3203 26.3207 17.3221C26.1208 17.3238 25.9284 17.4073 25.78 17.5565C25.6316 17.7058 25.5375 17.9106 25.5154 18.132C25.4934 18.3534 25.545 18.5762 25.6605 18.7581L25.6605 18.7579Z" fill="#ED9DA0"/>
<path d="M33.3921 13.7736C33.1675 15.4124 32.5684 19.2447 31.7694 20.0988C31.7191 20.1597 31.6573 20.2071 31.5884 20.2378C28.657 21.2807 27.5713 19.29 27.5713 19.29C27.5713 19.29 28.3432 18.7935 28.3101 17.9433L29.9573 18.3747L31.1403 14.7409L31.3336 14.51L31.3347 14.5086L33.3921 13.7736Z" fill="#3F3D56"/>
<path d="M39.4689 47.7988C40.1346 47.8938 40.8252 47.9542 41.4627 47.7238C41.5631 47.6891 41.6735 47.6119 41.6635 47.5C41.6564 47.4593 41.6409 47.421 41.6183 47.3881C41.378 46.9864 41.1762 46.5578 41.016 46.1093C41.0097 46.0859 40.9966 46.0655 40.9788 46.0511C40.9581 46.0428 40.9353 46.0428 40.9146 46.0511C40.6204 46.1373 40.3664 46.349 40.0742 46.4397C39.9253 46.4852 39.7699 46.4982 39.6165 46.4778C39.484 46.4609 39.3027 46.3391 39.1828 46.3547C39.251 46.8434 39.4177 47.2998 39.4689 47.7988Z" fill="#6C63FF"/>
<path d="M52.0569 46.5599C52.4956 46.2242 52.9503 45.8718 53.2094 45.3537C53.2278 45.3229 53.2386 45.2871 53.2405 45.2501C53.2361 45.2136 53.2233 45.1789 53.2033 45.1494C52.9566 44.7122 52.639 44.3301 52.2667 44.0226C52.0724 44.1756 51.8969 44.3561 51.7447 44.5597C51.6343 44.6892 51.3291 44.8954 51.3263 45.0934C51.3263 45.2053 51.4425 45.3351 51.497 45.4291C51.5703 45.55 51.6396 45.673 51.7062 45.7984C51.7437 45.8599 52.092 46.5357 52.0569 46.5599Z" fill="#6C63FF"/>
<path d="M42.078 49.2969C42.0859 49.4122 42.0575 49.5269 41.9977 49.6214C41.9508 49.6739 41.8928 49.7124 41.8291 49.7333C40.8985 50.1047 39.8212 49.6416 38.8927 50.0074C38.702 50.0824 38.5208 50.1909 38.3295 50.2626C38.1009 50.3391 37.8651 50.3857 37.6268 50.4013C37.2985 50.436 36.9682 50.4584 36.639 50.4684C36.3888 50.4881 36.1374 50.4635 35.8941 50.3956C35.7724 50.3608 35.6587 50.2978 35.5603 50.2108C35.4619 50.1238 35.381 50.0146 35.3229 49.8905C35.2724 49.7793 35.2624 49.6506 35.2948 49.5314C35.3094 49.4904 35.3301 49.4526 35.356 49.4195C35.419 49.3408 35.4929 49.2739 35.5749 49.2214L35.9172 48.9754C36.0778 48.8489 36.2522 48.7458 36.4362 48.6688C36.5717 48.6196 36.7151 48.5984 36.8528 48.5569C37.3337 48.4003 37.7012 47.9752 38.0425 47.5668L38.5083 47.013C38.5518 46.9521 38.607 46.9028 38.6699 46.8688C38.7345 46.8448 38.8032 46.8375 38.8707 46.8475C39.3232 46.8835 39.7601 47.0467 40.1407 47.3219C40.2381 47.4033 40.3433 47.4723 40.4544 47.5278C40.7275 47.6465 41.0779 47.557 41.3299 47.407C41.4493 47.3354 41.4228 47.2951 41.4734 47.1675C41.5239 47.04 41.6461 46.9584 41.7523 47.0747C41.7844 47.1149 41.8071 47.1634 41.8185 47.2157C41.9189 47.5849 41.8808 47.9822 41.8808 48.3693C41.8779 48.4298 41.8847 48.4904 41.9009 48.5482C41.9265 48.6066 41.9571 48.6621 41.9922 48.7139C41.9994 48.7276 42.0058 48.7418 42.0113 48.7564C42.0727 48.9278 42.0958 49.1132 42.0786 49.2968L42.078 49.2969Z" fill="#514E7F"/>
<path d="M42.0781 49.2968C42.0859 49.412 42.0575 49.5267 41.9977 49.6212C41.9509 49.6737 41.8929 49.7122 41.8291 49.7331C40.8985 50.1046 39.8212 49.6414 38.8927 50.0073C38.702 50.0823 38.5208 50.1908 38.3296 50.2624C38.101 50.339 37.8651 50.3856 37.6268 50.4011C37.2985 50.4358 36.9683 50.4582 36.6391 50.4682C36.3889 50.4879 36.1374 50.4634 35.8941 50.3954C35.7725 50.3606 35.6587 50.2977 35.5603 50.2107C35.4619 50.1236 35.381 50.0145 35.323 49.8903C35.2723 49.7793 35.2619 49.6508 35.294 49.5315C35.3086 49.4906 35.3293 49.4527 35.3553 49.4196C35.4094 49.546 35.4482 49.7138 35.4831 49.7742C35.5293 49.8636 35.592 49.9411 35.6671 50.0014C35.7422 50.0617 35.828 50.1034 35.9188 50.1238C36.0546 50.1331 36.1909 50.1137 36.3203 50.0667C37.1636 49.8336 38.0601 49.8306 38.8702 49.4782C39.1483 49.3562 39.4133 49.1941 39.7054 49.1203C39.9974 49.0465 40.3077 49.0665 40.6089 49.0385C41.0848 48.9961 41.5456 48.836 42.0144 48.7521C42.0749 48.9249 42.0966 49.1117 42.0776 49.296L42.0781 49.2968Z" fill="#464353"/>
<path d="M54.1882 46.492C54.1441 46.8858 53.9201 47.2248 53.6742 47.5124C53.4283 47.8001 53.1502 48.0584 52.9544 48.3896C52.7135 48.8001 52.6051 49.3091 52.292 49.6561C52.1718 49.7822 52.0367 49.8895 51.8905 49.9749C51.7267 50.0826 51.5535 50.1715 51.3735 50.24C50.9056 50.4067 50.4018 50.3688 49.9129 50.3284C49.7541 50.3267 49.597 50.2929 49.4491 50.2288C49.3817 50.1907 49.3172 50.1465 49.2563 50.0968C49.1337 50.0127 49.0305 49.8977 48.955 49.7611C48.918 49.6869 48.9076 49.5997 48.9259 49.5172C48.9538 49.4264 49.0018 49.3449 49.0653 49.2801C49.1754 49.1526 49.2935 49.0341 49.4187 48.9255C49.5907 48.8019 49.7458 48.6511 49.8789 48.4779C49.9605 48.3411 50.0206 48.1897 50.0566 48.0303C50.1277 47.7512 50.1711 47.4641 50.1861 47.1744C50.1855 46.9819 50.2034 46.7899 50.2393 46.6016C50.3135 46.3062 50.5104 46.0422 50.4882 45.7367C50.4793 45.693 50.4828 45.6472 50.4982 45.6058C50.5216 45.5734 50.5542 45.5509 50.5906 45.5421C50.744 45.4739 50.9058 45.432 51.0704 45.4179C51.153 45.4114 51.2358 45.4255 51.3129 45.4591C51.39 45.4927 51.4594 45.545 51.5162 45.6121C51.5844 45.7038 51.6296 45.8359 51.73 45.8711C51.7798 45.8863 51.832 45.8886 51.8826 45.8779C52.1296 45.8499 52.3906 45.8152 52.5853 45.6374C52.6753 45.5474 52.7476 45.4377 52.7977 45.3151C52.8478 45.1926 52.8746 45.0597 52.8765 44.9251C52.8765 44.8233 52.8353 44.7169 52.9769 44.7013C53.0833 44.6856 53.1676 44.8132 53.2218 44.8915C53.4176 45.1836 53.6183 45.4889 53.6917 45.8447C53.7202 45.8324 53.7505 45.8259 53.781 45.8257C53.8437 45.8251 53.9055 45.8413 53.9612 45.8731C54.017 45.9048 54.0651 45.9511 54.1013 46.008C54.1812 46.1524 54.2122 46.3238 54.1886 46.4914L54.1882 46.492Z" fill="#514E7F"/>
<path d="M54.1883 46.4922C54.1442 46.886 53.9202 47.2249 53.6743 47.5126C53.4284 47.8002 53.1503 48.0586 52.9545 48.3897C52.7136 48.8003 52.6052 49.3093 52.2921 49.6562C52.1719 49.7823 52.0368 49.8896 51.8906 49.9751C51.7268 50.0828 51.5536 50.1716 51.3736 50.2402C50.9057 50.4069 50.4018 50.3689 49.9129 50.3285C49.7542 50.3268 49.5971 50.2931 49.4492 50.2289C49.3818 50.1908 49.3173 50.1467 49.2564 50.0969C49.1338 50.0128 49.0306 49.8979 48.9551 49.7613C49.0493 49.7108 49.1519 49.6834 49.2564 49.6807C49.4732 49.6936 49.6318 49.9224 49.8396 49.9928C50.1357 50.0924 50.4309 49.8597 50.7311 49.7803C50.9269 49.7285 51.1327 49.7422 51.3264 49.6684C51.4879 49.5988 51.6371 49.4979 51.7671 49.3705C51.9453 49.2287 52.104 49.0585 52.238 48.8654C52.3492 48.6721 52.4418 48.4662 52.5141 48.2512C52.6725 47.8391 52.859 47.4411 53.0719 47.0607C53.1034 47.0005 53.1415 46.9448 53.1853 46.8951C53.2342 46.8503 53.2856 46.8088 53.339 46.7709C53.5398 46.6025 53.6231 46.3233 53.6933 46.0504C53.7123 45.9674 53.7389 45.8869 53.7725 45.8099C53.8352 45.8093 53.897 45.8255 53.9527 45.8573C54.0085 45.889 54.0566 45.9353 54.0928 45.9922C54.1792 46.1399 54.2132 46.3181 54.1883 46.4922Z" fill="#464353"/>
<path d="M37.8224 28.5866C37.9549 29.1459 37.7632 29.7344 37.6066 30.2883C37.3708 31.1225 37.2101 31.9808 37.1268 32.8504C37.1166 33.0717 37.0766 33.2899 37.0084 33.498C36.9341 33.6849 36.8076 33.8426 36.7212 34.0204C36.4843 34.4881 36.4903 35.0587 36.5416 35.5935C36.5757 35.9459 36.6269 36.2972 36.6902 36.644C36.7675 37.0681 36.8629 37.5118 36.7514 37.925C36.9382 37.8792 37.0652 38.1488 37.0526 38.3603C37.0401 38.5718 36.9793 38.8079 37.0708 38.9903C37.3017 39.0843 37.3032 39.4378 37.2967 39.7119C37.3005 40.1872 37.3544 40.6603 37.4573 41.1216C37.8066 42.9937 38.1774 44.8607 38.5697 46.7224C39.418 47.0155 40.4088 47.321 41.218 46.9149C41.2962 46.8856 41.3672 46.8364 41.4254 46.7712C41.4836 46.706 41.5274 46.6266 41.5533 46.5393C41.5621 46.4416 41.5511 46.3429 41.5212 46.2506L41.1377 44.6954C41.0447 44.3199 40.9509 43.9313 41.0001 43.5453C41.0373 43.2578 41.1497 42.9478 41.0233 42.6939C40.9802 42.6066 40.9119 42.5385 40.8617 42.4556C40.6609 42.1278 40.7663 41.6891 40.7824 41.292C40.7887 41.2029 40.7833 41.1132 40.7664 41.0258C40.7389 40.9237 40.7004 40.8256 40.6519 40.7337C40.335 40.048 40.1829 39.2825 40.2103 38.5117C40.2224 38.4134 40.2103 38.3133 40.1755 38.222C40.1511 38.1843 40.1292 38.1447 40.1101 38.1034C40.0952 38.0315 40.1026 37.9562 40.1312 37.8897C40.0161 37.7924 39.9123 37.6796 39.8219 37.554C39.8776 37.5154 39.9247 37.4632 39.9597 37.4014C39.9946 37.3396 40.0165 37.2697 40.0237 37.197C40.0308 37.1244 40.0231 37.0509 40.001 36.9821C39.9789 36.9133 39.9431 36.851 39.8962 36.7998C39.9371 36.7906 39.975 36.769 40.0055 36.7372C40.0361 36.7055 40.0581 36.665 40.0692 36.6201C40.0804 36.5753 40.0801 36.5279 40.0685 36.4832C40.0569 36.4385 40.0345 36.3982 40.0036 36.3669C39.9544 36.3288 39.8891 36.3121 39.854 36.255C39.7999 36.1722 39.844 36.057 39.8882 35.9685L40.1221 35.4975C40.2964 35.1478 40.3359 34.7143 40.5236 34.3787C40.7775 33.8793 40.9847 33.3522 41.142 32.8056L41.8176 30.728L42.2724 31.1683C42.4239 31.2973 42.5508 31.4586 42.6459 31.6427C42.7105 31.8247 42.7514 32.0161 42.7673 32.211C42.9339 33.3388 43.5704 34.3166 43.8063 35.4276C43.8585 35.6748 43.8937 35.9343 44.0212 36.1458C44.0669 36.2108 44.1078 36.2796 44.1437 36.3517C44.1769 36.4617 44.1943 36.5769 44.1949 36.693C44.216 36.9203 44.2807 37.1398 44.3846 37.3367C44.4885 37.5336 44.6293 37.7033 44.7973 37.8342C45.0211 38.0055 45.2992 38.1229 45.4207 38.3936C45.445 38.4774 45.4788 38.5575 45.5211 38.6319C45.6296 38.7773 45.8635 38.7942 45.9096 38.9765C45.9358 39.0783 45.8876 39.2003 45.9387 39.2898C45.9678 39.3312 46.0063 39.3633 46.0501 39.3827L46.7037 39.7463C47.4345 40.1536 47.8077 41.089 48.3471 41.7703C48.5333 41.9923 48.6982 42.2354 48.8391 42.4956C49.0715 42.9599 49.1794 43.5428 49.5729 43.8382C49.6786 43.899 49.7748 43.9783 49.8579 44.0731C49.9814 44.2545 49.9362 44.5084 49.9472 44.7366C49.9583 44.9648 50.1149 45.2367 50.3097 45.1674C50.2415 45.4438 50.2415 45.7356 50.3097 46.012C51.1644 45.9628 51.9794 45.5948 52.6237 44.967C52.8144 44.7813 52.9981 44.5442 53.0002 44.2622C53.0031 44.2136 52.9934 44.165 52.9721 44.1224C52.9335 44.0673 52.8826 44.0245 52.8245 43.9982C52.2131 43.6289 52.0294 42.7731 51.7205 42.0783C51.4504 41.4652 51.0509 40.9371 50.7166 40.3676C49.9898 39.1426 49.4938 37.6601 48.3946 36.8511C48.1526 36.6732 47.8716 36.5154 47.7501 36.2212C47.6828 36.0567 47.6748 35.8688 47.6215 35.6988C47.5683 35.5287 47.4408 35.3631 47.2782 35.3631C47.3687 35.117 47.3505 34.817 47.3566 34.5508C47.3627 34.4328 47.3505 34.3145 47.3204 34.2011C47.2787 34.079 47.2244 33.9626 47.1588 33.8543C46.872 33.3131 46.7286 32.6924 46.7452 32.0642C46.7532 31.7404 46.8045 31.4074 46.7171 31.0987C46.6729 30.9433 46.5956 30.8008 46.5428 30.6511C46.4625 30.3793 46.4202 30.0954 46.4172 29.8093L46.357 28.7343C46.348 28.3763 46.3063 28.0201 46.2326 27.6714C46.0318 26.8367 45.831 23.3405 45.1433 22.9466C44.4557 22.5528 43.2741 25.2435 42.5 25.2961C42.1576 25.312 41.8192 25.3847 41.4961 25.512C40.981 25.7268 40.5494 26.1273 40.1287 26.5189L38.7052 27.8515C38.4037 28.1278 38.1547 28.3919 37.8224 28.5866Z" fill="#464353"/>
<path d="M60.28 31.5034V30.1141C60.2797 29.0912 59.9149 28.1103 59.2658 27.3871C58.6167 26.6638 57.7364 26.2576 56.8185 26.2576H7.57747C6.6596 26.2576 5.77931 26.6638 5.13019 27.3871C4.48107 28.1103 4.11627 29.0912 4.11603 30.1141V32.6762L60.28 31.5034Z" fill="#33323D"/>
<path d="M21.2759 24.6282C21.2759 24.6282 21.1354 34.3461 22.6814 37.5438C24.2273 40.7414 24.8899 54.6521 24.8899 54.6521C24.8899 54.6521 41.0971 56.5205 52.3911 52.4145C63.6852 48.3085 87.717 46.6285 87.717 46.6285L83.6672 16.2093C83.6672 16.2093 63.6602 14.7795 52.2788 20.8288C40.8973 26.8781 21.2759 24.6282 21.2759 24.6282Z" fill="#8DD070"/>
<path d="M21.2759 24.6282C21.2759 24.6282 21.1354 34.3461 22.6814 37.5438C24.2273 40.7414 24.8899 54.6521 24.8899 54.6521C24.8899 54.6521 41.0971 56.5205 52.3911 52.4145C63.6852 48.3085 87.717 46.6285 87.717 46.6285L83.6672 16.2093C83.6672 16.2093 63.6602 14.7795 52.2788 20.8288C40.8973 26.8781 21.2759 24.6282 21.2759 24.6282Z" fill="#D6D6E3"/>
<path d="M24.8629 28.1782C24.8629 28.1782 24.3559 36.1967 25.628 38.7592C26.9 41.3217 26.9592 52.7593 26.9592 52.7593C26.9592 52.7593 41.5451 53.5134 51.9205 49.5773C62.2959 45.6413 84.0992 43.0889 84.0992 43.0889L81.6212 18.211C81.6212 18.211 63.5808 18.0037 53.0518 23.5443C42.5228 29.0849 24.8629 28.1782 24.8629 28.1782Z" fill="#E6E6E6"/>
<path opacity="0.1" d="M52.8914 45.022C54.9667 44.734 56.1996 40.4791 55.6452 35.5186C55.0908 30.5581 52.959 26.7703 50.8837 27.0584C48.8083 27.3465 47.5754 31.6013 48.1298 36.5618C48.6842 41.5224 50.8161 45.3101 52.8914 45.022Z" fill="black"/>
<path d="M15.3428 29.3498C15.3428 29.3498 17.8837 38.6471 20.2328 41.1621C22.5819 43.6772 27.0433 56.6904 27.0433 56.6904C27.0433 56.6904 42.9845 52.9257 52.603 45.1521C62.2215 37.3785 84.6339 27.5646 84.6339 27.5646L72.4053 0C72.4053 0 52.9695 5.48217 43.8039 15.1319C34.6382 24.7815 15.3428 29.3498 15.3428 29.3498Z" fill="#8DD070"/>
<path d="M15.3428 29.3498C15.3428 29.3498 17.8837 38.6471 20.2328 41.1621C22.5819 43.6772 27.0433 56.6904 27.0433 56.6904C27.0433 56.6904 42.9845 52.9257 52.603 45.1521C62.2215 37.3785 84.6339 27.5646 84.6339 27.5646L72.4053 0C72.4053 0 52.9695 5.48217 43.8039 15.1319C34.6382 24.7815 15.3428 29.3498 15.3428 29.3498Z" fill="#D6D6E3"/>
<path d="M19.7309 31.5022C19.7309 31.5022 21.4566 39.3082 23.373 41.3108C25.2895 43.3134 28.4932 54.1771 28.4932 54.1771C28.4932 54.1771 42.5821 49.9055 51.3734 42.6108C60.1647 35.3162 80.2147 25.4405 80.2147 25.4405L71.0078 2.60339C71.0078 2.60339 53.7817 8.57447 45.2856 17.4489C36.7894 26.3233 19.7309 31.5022 19.7309 31.5022Z" fill="#E6E6E6"/>
<path d="M51.0481 37.948C52.9439 36.9641 52.9458 32.4929 51.0523 27.9613C49.1588 23.4297 46.0869 20.5537 44.191 21.5376C42.2951 22.5215 42.2932 26.9927 44.1868 31.5243C46.0803 36.0559 49.1522 38.9319 51.0481 37.948Z" fill="#D6D6E3"/>
<path d="M61.6096 33.3584V71.9574C61.6093 72.8426 61.2936 73.6915 60.7318 74.3173C60.17 74.9432 59.4082 75.2947 58.6139 75.2947H7.11278C6.31871 75.2945 5.55726 74.9427 4.99586 74.3169C4.43446 73.691 4.11908 72.8423 4.11908 71.9574V29.4661C5.59495 30.0758 5.59495 30.0758 7.11278 30.0254H58.6136C59.4072 30.0253 60.1685 30.3762 60.7303 31.0011C61.292 31.626 61.6082 32.4738 61.6096 33.3584Z" fill="#5B3AED"/>
<path d="M61.6092 47.2997V59.6458H50.8673C49.3984 59.6458 47.9897 58.9956 46.9511 57.838C45.9124 56.6805 45.3289 55.1106 45.3289 53.4736C45.3289 51.8367 45.9124 50.2667 46.9511 49.1092C47.9897 47.9517 49.3984 47.3014 50.8673 47.3014L61.6092 47.2997Z" fill="#33323D"/>
<path d="M51.529 55.8811C52.7216 55.8811 53.6884 54.8037 53.6884 53.4746C53.6884 52.1454 52.7216 51.068 51.529 51.068C50.3364 51.068 49.3696 52.1454 49.3696 53.4746C49.3696 54.8037 50.3364 55.8811 51.529 55.8811Z" fill="#6C63FF"/>
<path d="M40.6759 28.1665C40.7571 28.0679 40.8179 27.9514 40.854 27.825C40.8901 27.6986 40.9006 27.5655 40.8849 27.435C40.8691 27.3045 40.8274 27.1798 40.7627 27.0698C40.698 26.9597 40.6119 26.8669 40.5105 26.7979L41.1805 23.6665L39.7557 24.2636L39.3377 27.1458C39.2411 27.3423 39.2128 27.5698 39.2584 27.7853C39.304 28.0008 39.4202 28.1892 39.5851 28.315C39.75 28.4408 39.952 28.4951 40.153 28.4678C40.354 28.4404 40.54 28.3333 40.6758 28.1666L40.6759 28.1665Z" fill="#ED9DA0"/>
<path d="M39.0488 14.3239L39.7344 14.4376C39.7344 14.4376 42.8694 20.1243 42.262 21.3106C41.6546 22.497 41.0468 26.3052 41.0468 26.3052C41.0468 26.3052 39.8124 26.1449 39.3075 25.5073L39.9037 21.0015L38.8082 17.3507L39.0488 14.3239Z" fill="#3F3D56"/>
<path d="M92.7055 75.5714H0.294904C0.13221 75.5714 0.000427246 75.5095 0.000427246 75.4331C0.000427246 75.3566 0.131861 75.2947 0.29444 75.2947H92.705C92.8677 75.2947 92.9995 75.3566 92.9995 75.4331C92.9995 75.5095 92.8684 75.5714 92.7055 75.5714Z" fill="#E6E6E6"/>
<path d="M81.9998 74.9435C82.002 74.9444 82.0042 74.9455 82.0061 74.947C81.9305 74.7649 81.86 74.5807 81.7957 74.3937C81.788 74.3717 81.781 74.349 81.7735 74.3271C81.7741 74.3328 81.7741 74.3384 81.7748 74.3449C81.7766 74.3804 81.7792 74.4157 81.7817 74.4519C81.7856 74.5078 81.7887 74.5645 81.7894 74.6211C81.79 74.6389 81.79 74.6558 81.79 74.6729C81.7898 74.7419 81.7834 74.8108 81.7709 74.8784H81.7735C81.7894 74.8798 81.8041 74.8804 81.8193 74.8833C81.8792 74.8922 81.9377 74.9108 81.9928 74.9386C81.9953 74.9399 81.9976 74.9416 81.9998 74.9435Z" fill="url(#paint0_linear_118_63)"/>
<path d="M80.796 47.1169C80.7892 47.4127 80.6993 47.6997 80.6852 47.9946C81.4669 48.038 82.238 47.6152 83.0121 47.7447C82.7957 47.5893 82.68 47.3075 82.6119 47.0306C82.5252 46.6734 82.4993 46.3013 82.5356 45.9334C82.5377 45.913 82.5409 45.8927 82.5454 45.8727C82.5741 45.728 82.6484 45.523 82.6284 45.4094C82.6022 45.2588 82.4748 45.2886 82.3601 45.2973C82.0102 45.327 81.662 45.3771 81.3168 45.4474C81.2268 45.4647 80.3507 45.7084 80.3376 45.6831C80.4911 45.9576 80.6182 46.2495 80.7168 46.5538C80.7715 46.7351 80.7983 46.9255 80.796 47.1169Z" fill="#ED9DA0"/>
<path d="M73.0648 46.2028C73.1319 46.3049 73.2124 46.3953 73.3035 46.471C73.3627 46.5252 73.4235 46.5805 73.4872 46.6303C73.6006 46.7279 73.7358 46.7891 73.8781 46.8075C74.0641 46.8216 74.4592 46.6996 74.5754 46.5226C74.6242 46.4331 74.6475 46.3292 74.642 46.2247C74.64 46.0831 74.6184 45.9428 74.5778 45.8086C74.5053 45.5902 74.4037 45.3853 74.2764 45.2007C74.1516 44.9838 73.9862 44.7996 73.7917 44.6605C73.725 44.6207 73.4547 44.8577 73.5252 45.063C73.4662 45.065 73.4093 45.0877 73.3626 45.128C73.316 45.1683 73.282 45.2241 73.2656 45.2873C73.2629 45.3209 73.2507 45.3526 73.2307 45.378C73.1986 45.4067 73.1486 45.3909 73.1121 45.4121C73.0475 45.451 73.0756 45.5579 73.0688 45.6392C73.053 45.7096 73.0307 45.7781 73.0023 45.8434C72.9885 45.9049 72.987 45.9689 72.9979 46.0311C73.0087 46.0932 73.0316 46.152 73.065 46.2032L73.0648 46.2028Z" fill="#ED9DA0"/>
<path d="M83.8412 75.8638C83.8063 75.8367 83.7663 75.8189 83.7242 75.8119C83.6822 75.8048 83.6392 75.8086 83.5987 75.823C83.1476 75.9025 82.6918 75.9435 82.2351 75.9459C82.1779 75.6351 82.3439 75.3323 82.3978 75.0204C82.4055 74.9399 82.4237 74.8611 82.4518 74.7864C82.4909 74.7221 82.542 74.668 82.6016 74.6278C82.6613 74.5877 82.7281 74.5625 82.7973 74.5539C83.0431 74.4961 83.4272 74.3942 83.5643 74.6705C83.7287 75.0033 83.7814 75.494 83.8412 75.8638Z" fill="#ED9DA0"/>
<path d="M78.845 74.6885C79.0395 74.8154 79.2579 74.8896 79.4829 74.9051C79.7076 74.92 79.9285 74.9762 80.1368 75.0714C80.3111 75.1673 80.4576 75.3245 80.6419 75.3933C80.8133 75.4456 80.9938 75.4488 81.1665 75.4025C81.3736 75.3591 81.5944 75.2752 81.7062 75.0757C81.8059 74.8985 81.7952 74.6742 81.7815 74.4651C81.7655 74.2294 81.7497 73.9933 81.7343 73.7569C81.7351 73.6969 81.7215 73.6378 81.6949 73.5857C81.5451 73.3425 81.181 73.6876 80.986 73.687C80.6635 73.6665 80.3579 73.5197 80.1231 73.2725C80.1036 73.2499 80.0809 73.2308 80.056 73.2162C79.968 73.1723 79.8801 73.2536 79.8017 73.3246C79.793 73.3328 79.7842 73.3409 79.7755 73.3484C79.5951 73.5077 79.3529 73.5402 79.1303 73.6047C78.9076 73.6692 78.6685 73.799 78.5994 74.0442C78.595 74.0596 78.5914 74.0753 78.5887 74.0913C78.5765 74.2076 78.5941 74.3255 78.6394 74.4311C78.6848 74.5368 78.756 74.626 78.845 74.6885Z" fill="#090814"/>
<path d="M83.7566 59.3321C83.9009 60.1212 83.7641 60.942 83.3751 61.6208C83.2592 61.7964 83.1556 61.9816 83.0651 62.1748C83.0128 62.3167 82.9723 62.4637 82.9441 62.6138L82.6004 64.1989C82.5075 64.6263 82.4145 65.063 82.4422 65.5022C82.4616 65.8081 82.5308 66.1522 82.3615 66.3941C82.3207 66.4403 82.2862 66.493 82.2593 66.5504C82.2424 66.6177 82.2418 66.6888 82.2575 66.7564C82.4318 67.9072 82.5602 69.1102 82.2459 70.2235C81.9613 71.2325 81.945 72.3506 81.7031 73.3733C81.6834 73.5033 81.6313 73.6245 81.5527 73.723C81.488 73.7837 81.4104 73.8248 81.3274 73.8424C80.9707 73.9369 80.5942 73.8262 80.2616 73.6543C80.0278 73.5336 79.7762 73.3219 79.7968 73.0357C79.821 72.9017 79.8646 72.773 79.9261 72.6547C80.0036 72.4008 80.0467 72.1354 80.0539 71.8674C80.1183 71.1986 80.3033 70.5528 80.4431 69.8988C80.5829 69.2448 80.678 68.5607 80.5593 67.9011C80.3174 66.5368 79.9303 65.2095 79.4061 63.9474C79.3832 63.8803 79.3471 63.8198 79.3004 63.7704C79.2479 63.7371 79.1979 63.6991 79.151 63.6567C79.1147 63.5941 79.0913 63.5233 79.0825 63.4494C79.0305 63.2407 78.876 63.0868 78.7725 62.9033C78.511 62.4403 78.5939 61.8469 78.6035 61.2998C78.6129 60.7679 78.5442 60.2311 78.6224 59.7069C78.7007 59.1826 78.9705 58.6455 79.4243 58.4812C79.654 58.4151 79.8934 58.4025 80.1276 58.4441C81.3752 58.5801 82.5866 58.8325 83.7566 59.3321Z" fill="#090814"/>
<path d="M78.6786 62.6676C78.6824 62.8743 78.7034 63.0802 78.7414 63.2825C78.9612 64.656 79.1954 66.0266 79.4439 67.3943C79.4657 67.513 79.4871 67.6316 79.5158 67.7482C79.6086 68.1288 79.7708 68.4841 79.9923 68.7917C81.0283 70.2309 81.1178 72.3206 81.6798 74.0561C81.7177 74.1737 81.7557 74.2913 81.796 74.4072C81.8976 74.7013 82.0133 74.989 82.1426 75.2692C82.1577 75.3101 82.1824 75.3456 82.2141 75.3722C82.249 75.3917 82.288 75.4001 82.327 75.3965C82.8326 75.3998 83.3322 75.2732 83.7869 75.0265C83.8519 74.9998 83.9066 74.9491 83.942 74.8829C83.9595 74.8301 83.9651 74.7734 83.9586 74.7176C83.943 74.3735 83.9237 74.0171 83.7767 73.7147C83.6788 73.5337 83.5574 73.3699 83.4164 73.2286C83.3839 72.1471 83.266 71.0709 83.064 70.0124C82.9546 69.4732 82.8199 68.9282 82.5385 68.4725C82.3314 68.1358 82.0342 67.8038 82.0707 67.3976C82.0867 67.2194 82.1538 66.9971 82.0235 66.8925C81.9667 66.8464 81.8826 66.8407 81.8441 66.7749C81.8286 66.744 81.8199 66.7095 81.8188 66.6741C81.7921 66.3956 81.8078 66.1141 81.8653 65.8414C81.9126 65.6632 81.9498 65.4819 81.9766 65.2985C81.9893 65.2063 81.985 65.1123 81.9639 65.0221C81.9428 64.9319 81.9055 64.8475 81.8541 64.7739C81.8472 64.4033 81.8565 64.0186 81.8497 63.6486C81.8365 63.4377 81.8522 63.2258 81.8962 63.0201C81.9214 62.9231 81.9598 62.8305 81.9793 62.7313C82.049 62.3753 81.8747 61.9489 82.0819 61.6666C82.1805 61.5625 82.2922 61.4749 82.4134 61.4065C82.6343 61.2273 82.7946 60.9704 82.8685 60.6773C82.9414 60.386 82.9847 60.0864 82.9974 59.7843C83.0041 59.7203 83.0048 59.6556 82.9993 59.5915C82.9957 59.5582 82.9879 59.5257 82.9761 59.495C82.912 59.334 82.7394 59.2717 82.5858 59.2305C81.6094 58.9695 80.6086 58.8391 79.6045 58.842C79.2326 58.5602 79.0234 58.6607 78.8664 58.9596C78.7795 59.1418 78.7091 59.3333 78.6564 59.5312C78.5845 59.7734 78.5801 61.1291 78.5101 61.3724C78.419 61.6897 78.6825 62.3355 78.6786 62.6676Z" fill="#090814"/>
<path d="M81.1473 46.5573C82.1444 46.5573 82.9526 45.6565 82.9526 44.5453C82.9526 43.4342 82.1444 42.5334 81.1473 42.5334C80.1503 42.5334 79.342 43.4342 79.342 44.5453C79.342 45.6565 80.1503 46.5573 81.1473 46.5573Z" fill="#ED9DA0"/>
<path d="M80.0972 47.839C80.1758 47.9406 80.2815 48.0523 80.3983 48.0197C80.4405 48.0036 80.48 47.98 80.5154 47.9498C80.7235 47.8003 80.979 47.7652 81.2243 47.7242C81.7175 47.6414 82.2047 47.5195 82.6823 47.3592C82.821 47.3029 82.9664 47.27 83.1138 47.2614C83.4197 47.2632 83.691 47.4899 83.8827 47.7556C84.0745 48.0214 84.2103 48.3323 84.3985 48.6012C84.5326 48.7927 84.6922 48.9616 84.8168 49.1606C85.1329 49.6627 83.8523 55.6344 83.8698 55.7351C83.9896 56.6854 84.0527 59.3305 84 59.8178C83.4352 59.5746 82.8434 59.4177 82.2408 59.3516C81.8529 59.3092 81.4576 59.3038 81.0833 59.1825C80.8495 59.1067 80.6279 58.9866 80.3905 58.9263C80.198 58.8842 80.0024 58.862 79.8063 58.8598C79.3742 58.8253 78.9401 58.8362 78.5097 58.8922C78.4749 58.8979 78.4328 58.901 78.4121 58.8696C78.4029 58.8524 78.3983 58.8327 78.3991 58.8127C78.3925 58.6338 78.4309 58.4564 78.5098 58.3005C78.5783 58.2031 78.6224 58.0872 78.6377 57.9647C78.6337 57.9072 78.7453 50.3883 78.905 50.0675C79.1087 49.7049 79.2607 49.3093 79.3556 48.8948C79.4055 48.6176 79.4037 48.3322 79.4393 48.0523C79.443 47.9813 79.4652 47.9129 79.5031 47.8556C79.5379 47.8216 79.5789 47.7965 79.6232 47.7818C79.6676 47.7671 79.7142 47.7633 79.76 47.7705C79.8749 47.7743 79.9885 47.7973 80.0972 47.839Z" fill="#6C63FF"/>
<path d="M79.4937 50.9817C79.3931 51.1428 79.2636 51.2789 79.1134 51.3815C78.9265 51.4696 78.7228 51.5044 78.5208 51.4827C77.6889 51.4629 76.8602 51.3615 76.0443 51.1795C75.9513 51.1617 74.955 50.472 74.7507 50.1823C74.5077 49.8326 73.8964 47.5841 73.875 47.456C73.8375 47.2352 73.7371 47.0338 73.5886 46.8817C73.5571 46.8567 73.5333 46.8215 73.5205 46.7809C73.5165 46.747 73.5222 46.7126 73.5367 46.6826C73.5838 46.582 73.6505 46.4945 73.7319 46.4264C73.8133 46.3584 73.9073 46.3114 74.007 46.2891C74.2067 46.2462 74.411 46.2372 74.6131 46.2623C74.6804 46.2765 74.7468 46.2962 74.8116 46.3211C74.9717 46.8047 76.0877 49.0439 76.1461 49.0408C76.3057 49.0518 76.6501 49.1168 76.7948 49.0408C76.959 48.9551 77.4976 48.9516 77.5263 48.9341C77.5914 48.8917 78.1771 48.6092 78.2534 48.6182C78.2053 48.5706 79.314 48.2596 79.3905 48.1112C79.4176 48.0586 79.4229 47.9872 79.469 47.9551C79.5003 47.938 79.5359 47.9334 79.5698 47.9422C79.6757 47.9581 79.7786 47.9931 79.8744 48.0458C80.0307 48.7273 79.9486 49.4349 79.8295 50.1257C79.786 50.439 79.6704 50.7344 79.4939 50.9831L79.4937 50.9817Z" fill="#6C63FF"/>
<path d="M80.4015 47.3342C80.6017 47.2108 80.8209 47.1304 81.0476 47.0972C81.1824 47.0631 81.321 47.052 81.4588 47.0643C81.5859 47.0821 81.7078 47.1367 81.8358 47.1446C82.0155 47.1353 82.1928 47.0938 82.3607 47.0217C82.5341 46.9689 82.7343 46.9487 82.8804 47.0655C82.9115 47.0996 82.9507 47.1229 82.9935 47.1325C83.0378 47.1265 83.079 47.104 83.1104 47.0686C83.2332 46.9707 83.3823 46.9221 83.5331 46.931C83.6839 46.9398 83.8276 47.0055 83.9405 47.1173C84.2714 47.4632 84.234 48.139 84.6219 48.4014C84.7288 48.4737 84.866 48.512 84.928 48.6327C84.9431 48.6712 84.9608 48.7084 84.9808 48.744C85.0067 48.7758 85.0384 48.801 85.0738 48.818C85.1863 48.874 85.2935 48.9427 85.3936 49.0229C85.4435 49.0634 85.4855 49.1148 85.5172 49.1739C85.5488 49.233 85.5694 49.2986 85.5776 49.3668C85.5791 49.4667 85.5598 49.5657 85.5212 49.656C85.3313 50.1748 85.002 50.6155 84.5784 50.9173C84.1548 51.2192 83.6577 51.3675 83.1555 51.3418C83.0663 51.3469 82.9783 51.3163 82.9076 51.2556C82.8703 51.2087 82.8409 51.1547 82.8208 51.0961C82.6385 50.67 82.2959 50.3555 82.0784 49.9502C81.9489 49.7088 81.8657 49.4387 81.7306 49.2009C81.5261 48.8403 81.215 48.574 80.9105 48.3155C80.7388 48.1698 80.5477 48.0169 80.3319 48.027C80.1397 48.0361 79.9998 48.0476 80.0703 47.7848C80.1291 47.5955 80.2465 47.4357 80.4015 47.3342Z" fill="#6C63FF"/>
<path opacity="0.05" d="M80.4015 47.3342C80.6017 47.2108 80.8209 47.1304 81.0476 47.0972C81.1824 47.0631 81.321 47.052 81.4588 47.0643C81.5859 47.0821 81.7078 47.1367 81.8358 47.1446C82.0155 47.1353 82.1928 47.0938 82.3607 47.0217C82.5341 46.9689 82.7343 46.9487 82.8804 47.0655C82.9115 47.0996 82.9507 47.1229 82.9935 47.1325C83.0378 47.1265 83.079 47.104 83.1104 47.0686C83.2332 46.9707 83.3823 46.9221 83.5331 46.931C83.6839 46.9398 83.8276 47.0055 83.9405 47.1173C84.2714 47.4632 84.234 48.139 84.6219 48.4014C84.7288 48.4737 84.866 48.512 84.928 48.6327C84.9431 48.6712 84.9608 48.7084 84.9808 48.744C85.0067 48.7758 85.0384 48.801 85.0738 48.818C85.1863 48.874 85.2935 48.9427 85.3936 49.0229C85.4435 49.0634 85.4855 49.1148 85.5172 49.1739C85.5488 49.233 85.5694 49.2986 85.5776 49.3668C85.5791 49.4667 85.5598 49.5657 85.5212 49.656C85.3313 50.1748 85.002 50.6155 84.5784 50.9173C84.1548 51.2192 83.6577 51.3675 83.1555 51.3418C83.0663 51.3469 82.9783 51.3163 82.9076 51.2556C82.8703 51.2087 82.8409 51.1547 82.8208 51.0961C82.6385 50.67 82.2959 50.3555 82.0784 49.9502C81.9489 49.7088 81.8657 49.4387 81.7306 49.2009C81.5261 48.8403 81.215 48.574 80.9105 48.3155C80.7388 48.1698 80.5477 48.0169 80.3319 48.027C80.1397 48.0361 79.9998 48.0476 80.0703 47.7848C80.1291 47.5955 80.2465 47.4357 80.4015 47.3342Z" fill="black"/>
<path d="M79.4619 76.4949C79.6017 76.6211 79.7692 76.7032 79.9471 76.7328C80.3457 76.8194 80.7492 76.875 81.1548 76.8991C81.2861 76.91 81.4177 76.9214 81.5491 76.9327C81.9341 76.9652 82.3197 76.9982 82.7062 76.9999C83.1832 77.0017 83.6595 76.9558 84.1292 76.8629C84.148 76.8649 84.1669 76.8619 84.1845 76.8543C84.2021 76.8466 84.2179 76.8345 84.2305 76.8189C84.2431 76.8032 84.2523 76.7845 84.2572 76.7641C84.2622 76.7438 84.2628 76.7225 84.259 76.7019C84.2506 76.166 83.9293 75.7495 83.8212 75.2271C83.7765 75.0125 83.694 75.3766 83.6784 75.3967C83.6427 75.4528 83.5958 75.4988 83.5413 75.5311C83.4868 75.5634 83.4263 75.581 83.3646 75.5825C82.9674 75.6069 82.5226 75.3376 82.207 75.0981C82.1395 75.0421 82.0677 74.9927 81.9926 74.9502C81.9374 74.9226 81.879 74.904 81.819 74.8949C81.6147 74.874 81.4093 74.9203 81.2283 75.0282C80.991 75.1593 80.783 75.3478 80.5481 75.4828C80.3572 75.5921 80.1511 75.6649 79.9385 75.6979C79.7236 75.7309 79.4669 75.7466 79.3565 75.9542C79.3564 75.9545 79.3563 75.9548 79.3563 75.9551C79.3563 75.9553 79.3564 75.9556 79.3565 75.9559C79.3188 76.0462 79.3086 76.1478 79.3277 76.2452C79.3467 76.3426 79.3939 76.4303 79.4619 76.4949Z" fill="#090814"/>
<path opacity="0.1" d="M83.1945 44.8247C83.1565 44.8511 83.1141 44.8687 83.0698 44.8765C83.0141 44.8946 82.9554 44.8989 82.898 44.8893C82.8406 44.8798 82.7857 44.8564 82.7371 44.8209L83.1945 44.8247Z" fill="black"/>
<path d="M79.6661 42.0257C79.9017 41.899 80.1673 41.8589 80.4247 41.9111C80.6793 41.9503 80.944 42.0378 81.1868 41.9493C81.4637 41.8458 81.6763 41.522 81.9659 41.5483C82.0888 41.5691 82.204 41.6277 82.2987 41.7176C82.6732 42.0296 82.9562 42.4586 83.1116 42.9501C83.1419 43.0856 83.1952 43.2132 83.2687 43.3262C83.318 43.3773 83.3647 43.4312 83.4088 43.4878C83.4521 43.5657 83.4772 43.6544 83.4818 43.7458C83.532 44.2497 83.4159 44.7568 83.1551 45.1722C83.0008 45.4175 82.7996 45.6208 82.64 45.8663C82.4805 46.1118 81.9864 46.5001 81.9528 46.3402C81.9046 46.1834 81.8761 46.02 81.8683 45.8545C81.8831 45.5284 82.0525 45.2628 81.9131 44.9756C81.8269 44.798 81.6241 44.6201 81.4844 44.7476C81.4295 44.7966 81.4056 44.8772 81.3549 44.9308C81.2999 44.9763 81.2311 44.9958 81.1633 44.9852C81.0955 44.9746 81.0342 44.9347 80.9925 44.8742C80.9125 44.7486 80.8779 44.594 80.8956 44.4412C80.9341 43.7453 80.7792 43.2346 80.0881 43.2591C79.8306 43.2684 79.5438 43.2289 79.384 42.969C79.1733 42.6268 79.3778 42.2013 79.6661 42.0257Z" fill="#090814"/>
<defs>
<linearGradient id="paint0_linear_118_63" x1="47.5257" y1="74.947" x2="47.5257" y2="74.3271" gradientUnits="userSpaceOnUse">
<stop stop-color="#808080" stop-opacity="0.251"/>
<stop offset="0.535" stop-color="#808080" stop-opacity="0.122"/>
<stop offset="1" stop-color="#808080" stop-opacity="0.102"/>
</linearGradient>
</defs>
</svg>
