<svg width="648" height="126" viewBox="0 0 648 126" fill="none" xmlns="http://www.w3.org/2000/svg">
<g clip-path="url(#clip0_34_69)">
<path d="M30.2296 118.785C21.3528 118.785 15.4676 115.998 12.5599 110.41C9.63827 104.81 9.65225 96.335 12.6158 84.985L24.7777 37.635C27.4407 27.485 31.97 19.81 38.3655 14.61C44.7749 9.3975 52.9877 6.785 62.9967 6.785C71.1047 6.785 77.0178 8.235 80.7503 11.135C84.4757 14.035 86.4817 18.26 86.7613 23.81C87.0409 29.36 86.0903 36.485 83.9096 45.185H59.8654L62.4376 35.335C63.1086 32.685 63.2204 30.635 62.7731 29.185C62.3397 27.735 61.0816 27.01 58.9987 27.01C54.3157 27.01 51.2612 29.7475 49.8284 35.21L36.1008 88.46C35.2411 91.7788 35.0454 94.2975 35.5137 96.01C35.996 97.71 37.4289 98.56 39.8193 98.56C42.2027 98.56 44.1039 97.71 45.5228 96.01C46.9557 94.2975 48.1019 91.7788 48.9617 88.46L52.9877 72.71H46.3895L51.2542 53.76H81.3374L64.87 117.76H54.9727L53.1275 108.535C47.0116 115.373 39.3789 118.785 30.2296 118.785Z" fill="#00D4AA"/>
<path d="M73.452 117.76L101.774 7.81003H125.538L97.2166 117.76H73.452Z" fill="#00D4AA"/>
<path d="M132.14 118.785C123.263 118.785 117.378 115.998 114.47 110.41C111.549 104.81 111.563 96.335 114.526 84.985L126.688 37.635C129.351 27.485 133.881 19.81 140.276 14.61C146.685 9.3975 154.898 6.785 164.907 6.785C173.015 6.785 178.928 8.235 182.661 11.135C186.386 14.035 188.392 18.26 188.672 23.81C188.951 29.36 188.001 36.485 185.82 45.185H161.776L164.348 35.335C165.019 32.685 165.131 30.635 164.684 29.185C164.25 27.735 162.992 27.01 160.909 27.01C156.226 27.01 153.172 29.7475 151.739 35.21L138.011 88.46C137.152 91.7788 136.956 94.2975 137.424 96.01C137.907 97.71 139.339 98.56 141.73 98.56C144.113 98.56 146.014 97.71 147.433 96.01C148.866 94.2975 150.012 91.7788 150.872 88.46L154.898 72.71H148.3L153.165 53.76H183.248L166.78 117.76H156.883L155.038 108.535C148.922 115.373 141.289 118.785 132.14 118.785Z" fill="#00D4AA"/>
<path d="M205.423 118.785C194.254 118.785 186.838 116.31 183.169 111.36C179.499 106.41 179.087 98.435 181.938 87.435L184.678 76.66H208.862L205.284 90.36C203.844 95.8288 205.088 98.56 209.002 98.56C211.197 98.56 212.895 97.985 214.091 96.835C215.279 95.685 216.215 93.7475 216.886 91.01C217.837 87.4288 218.117 84.46 217.725 82.11C217.348 79.76 216.635 77.8038 215.572 76.235C214.524 74.6538 212.525 72.1975 209.561 68.86L201.425 59.385C195.121 52.2225 193.066 44.285 195.247 35.585C197.63 26.2038 201.88 19.06 207.996 14.16C214.105 9.2475 221.786 6.785 231.033 6.785C242.105 6.785 249.402 9.41 252.925 14.66C256.461 19.91 256.755 28.1225 253.791 39.285H228.741L230.614 31.735C231.005 30.285 230.866 29.135 230.195 28.285C229.524 27.435 228.377 27.01 226.756 27.01C224.834 27.01 223.247 27.485 222.003 28.435C220.773 29.3725 219.969 30.6475 219.598 32.26C218.648 35.8475 219.976 39.5538 223.596 43.385L234.78 55.685C237.352 58.585 239.4 61.335 240.931 63.935C242.454 66.535 243.433 69.61 243.866 73.16C244.293 76.6975 243.88 80.8975 242.636 85.76C239.784 96.5975 235.423 104.81 229.552 110.41C223.68 115.998 215.635 118.785 205.423 118.785Z" fill="white"/>
<path d="M252.955 117.76L275.853 28.935H261.259L266.683 7.81003H320.503L315.079 28.935H300.456L277.559 117.76H252.955Z" fill="white"/>
<path d="M327.501 7.81003H365.301C371.319 7.81003 375.659 9.02878 378.329 11.46C380.992 13.8975 382.327 17.31 382.327 21.71C382.327 26.0975 381.468 31.7038 379.755 38.535C378.134 44.7538 375.96 49.61 373.241 53.11C370.515 56.61 366.727 59.0475 361.862 60.41C365.399 61.0975 367.663 62.76 368.656 65.41C369.662 68.06 369.592 71.6475 368.46 76.16L357.445 117.76H333.372L344.416 74.76C345.269 71.6788 345.122 69.71 343.969 68.86C342.829 68.01 340.488 67.585 336.951 67.585L324.09 117.76H299.179L327.501 7.81003ZM347.995 48.51C351.42 48.51 353.992 45.185 355.711 38.535C356.473 35.635 356.871 33.46 356.913 32.01C356.969 30.56 356.69 29.56 356.075 29.01C355.46 28.4475 354.432 28.16 352.999 28.16H347.268L342.123 48.51H347.995Z" fill="white"/>
<path d="M367.454 117.76L395.775 7.81003H445.038L439.586 29.06H415.402L409.811 50.435H433.016L427.704 71.16H404.526L397.928 96.385H423.706L418.254 117.76H367.454Z" fill="white"/>
<path d="M423.125 117.76L463.357 7.81003H505.015L488.408 117.76H465.063L467.915 99.96H453.041L447.03 117.76H423.125ZM459.471 82.435H470.654L479.517 26.485H478.371L459.471 82.435Z" fill="white"/>
<path d="M495.844 117.76L524.166 7.81003H561.686L554.668 74.885L582.291 7.81003H620.091L591.741 117.76H569.262L589.728 38.535L555.087 117.76H533.056L538.48 38.535L518.015 117.76H495.844Z" fill="white"/>
</g>
<defs>
<clipPath id="clip0_34_69">
<rect width="648" height="126" fill="white"/>
</clipPath>
</defs>
</svg>
