<svg width="306" height="360" viewBox="0 0 306 360" fill="none" xmlns="http://www.w3.org/2000/svg">
<g clip-path="url(#clip0_58_145)">
<path d="M17.6376 359.1H305.536C305.792 359.1 306 358.734 306 358.283C306 357.832 305.792 357.466 305.536 357.466H17.6376C17.3811 357.466 17.1735 357.831 17.1735 358.283C17.1735 358.735 17.3811 359.1 17.6376 359.1Z" fill="#E6E6E6"/>
<path d="M227.662 131.352C227.661 132.153 227.568 132.951 227.383 133.731L219.5 167.382C219.233 168.519 218.747 169.592 218.066 170.54C217.386 171.489 216.527 172.293 215.536 172.907C214.546 173.522 213.444 173.934 212.295 174.121C211.145 174.308 209.97 174.266 208.837 173.997L177.242 164.164L175.698 163.688C174.696 164.378 173.567 164.861 172.377 165.109C171.187 165.357 169.96 165.364 168.767 165.131C164.182 164.316 161.005 160.573 161.676 156.763C162.348 152.953 166.607 150.531 171.192 151.34C172.393 151.53 173.544 151.957 174.578 152.598C175.613 153.238 176.51 154.078 177.218 155.069L177.241 155.073L177.321 155.088L204.822 158.499L207.133 130.522C207.346 127.868 208.575 125.398 210.563 123.632C212.55 121.865 215.142 120.938 217.795 121.045C220.448 121.152 222.957 122.285 224.797 124.206C226.636 126.127 227.664 128.687 227.663 131.351L227.662 131.352Z" fill="#9F616A"/>
<path d="M227.662 131.352C227.661 132.153 227.568 132.951 227.384 133.731L220.915 168.8C220.649 169.937 220.162 171.01 219.482 171.958C218.802 172.907 217.942 173.711 216.952 174.325C215.961 174.94 214.86 175.352 213.71 175.539C212.561 175.727 211.386 175.684 210.253 175.415L178.657 166.603L180.07 152.881L204.133 156.192L207.132 130.519C207.345 127.864 208.573 125.395 210.561 123.629C212.548 121.862 215.14 120.935 217.793 121.042C220.447 121.149 222.956 122.282 224.795 124.203C226.635 126.124 227.662 128.684 227.662 131.348L227.662 131.352Z" fill="#E6E6E6"/>
<path d="M274.325 323.808L266.693 329.448L261.07 321.792L268.703 316.153L274.325 323.808Z" fill="#9F616A"/>
<path d="M278.138 331.731L261.916 343.728C260.52 344.757 258.911 345.461 257.209 345.786L253.16 346.556C252.714 346.64 252.253 346.587 251.838 346.401C251.423 346.216 251.074 345.909 250.838 345.519C250.602 345.13 250.49 344.678 250.517 344.223C250.545 343.768 250.709 343.333 250.99 342.974L255.901 336.7L262.366 323.33L262.404 323.364C263.338 324.221 264.757 325.509 264.865 325.572C266.861 326.016 268.395 325.767 269.422 324.832C271.215 323.203 270.854 320.007 270.849 319.977L270.846 319.952L270.867 319.939C271.07 319.802 271.302 319.713 271.544 319.68C271.786 319.647 272.033 319.67 272.265 319.747C273.198 320.089 273.685 321.318 273.755 321.505C274.666 321.633 277.036 324.358 277.226 324.579C278.589 324.827 279.527 325.342 280.015 326.105C280.232 326.486 280.366 326.909 280.408 327.345C280.451 327.782 280.4 328.223 280.261 328.639C279.926 329.882 279.178 330.973 278.14 331.731L278.138 331.731Z" fill="#090814"/>
<path d="M193.771 338.486H203.252V347.996H193.771V338.486Z" fill="#9F616A"/>
<path d="M201.634 356.646H181.48C179.747 356.644 178.037 356.253 176.474 355.502L172.759 353.711C172.35 353.514 172.01 353.196 171.786 352.8C171.561 352.404 171.463 351.949 171.503 351.495C171.543 351.041 171.721 350.61 172.012 350.261C172.303 349.911 172.693 349.658 173.131 349.537L180.796 347.409L193.909 340.496L193.918 340.546C194.164 341.792 194.545 343.674 194.59 343.788C195.932 345.334 197.316 346.046 198.696 345.905C201.103 345.661 202.702 342.873 202.718 342.845L202.73 342.823L202.755 342.826C202.999 342.836 203.238 342.902 203.453 343.02C203.668 343.137 203.853 343.303 203.994 343.503C204.543 344.334 204.208 345.613 204.153 345.805C204.81 346.45 205.105 350.054 205.128 350.346C206.079 351.357 206.531 352.328 206.471 353.234C206.42 353.67 206.278 354.089 206.055 354.466C205.831 354.843 205.531 355.168 205.173 355.42C204.168 356.222 202.919 356.656 201.635 356.648L201.634 356.646Z" fill="#090814"/>
<path d="M241.939 189.824H196.497L189.254 341.029H205.256L215.594 272.3L257.084 327.283L272.231 313.537L241.936 272.299L241.939 189.824Z" fill="#090814"/>
<path d="M231.493 96.2568C231.493 93.1521 230.634 90.1083 229.013 87.4634C227.392 84.8185 225.072 82.676 222.31 81.2738C219.548 79.8715 216.453 79.2645 213.368 79.5199C210.283 79.7754 207.33 80.8834 204.835 82.721C202.34 84.5585 200.401 87.0537 199.234 89.9294C198.068 92.8052 197.719 95.949 198.226 99.0118C198.733 102.075 200.076 104.937 202.107 107.28C204.137 109.623 206.775 111.356 209.729 112.286L212.967 133.747L229.471 119.952C229.471 119.952 225.905 115.397 223.993 110.261C226.3 108.73 228.193 106.65 229.502 104.205C230.811 101.761 231.495 99.0299 231.493 96.2555V96.2568Z" fill="#9F616A"/>
<path d="M231.96 169.096L239.382 191.033L197.392 190.559L203.653 170.515L231.96 169.096Z" fill="#ED9DA0"/>
<path d="M228.168 113.42L209.547 119.911L191.944 211.065L228.169 215.502H245.875L232.346 124.855C231.741 120.798 230.319 116.907 228.167 113.418L228.168 113.42Z" fill="#E6E6E6"/>
<path d="M222.948 220.525L223.272 205.542L214.55 205.352L214.226 220.335C213.356 221.187 212.665 222.204 212.191 223.326C211.717 224.449 211.471 225.655 211.467 226.874C211.366 231.542 214.408 235.398 218.261 235.482C222.115 235.566 225.321 231.846 225.422 227.178C225.47 225.96 225.277 224.744 224.852 223.601C224.427 222.459 223.78 221.413 222.948 220.524V220.525Z" fill="#9F616A"/>
<path d="M227.944 106.805C228.708 106.453 229.718 104.601 230.693 102.54C232.738 98.2243 234.038 95.4816 234.136 91.6024C234.221 88.2968 233.305 89.1645 232.415 81.8168C232.121 79.3929 227.993 79.3974 227.152 78.2464C225.733 76.3023 227.911 75.5006 224.378 74.3349C217.763 72.1475 214.772 75.5469 210.571 75.8382C210.465 75.8454 208.383 77.8882 207.22 77.9928C205.182 78.1782 202.244 77.8582 200.925 74.7456C199.693 71.8342 198.877 80.3423 199.978 81.3949C200.942 82.4114 201.809 83.5166 202.567 84.6959C202.612 84.8809 200.626 78.8762 199.978 80.656C199.512 81.9353 199.086 90.2073 200.271 90.4546C201.263 90.6615 209.502 93.8356 218.638 87.5773C218.962 87.3551 218.656 87.7093 219.786 90.4546C221.21 93.9164 221.534 94.1058 221.507 95.0601C221.454 97.125 219.907 97.7336 220.359 99.0897C220.586 99.651 220.988 100.123 221.506 100.435C222.023 100.746 222.628 100.88 223.228 100.817C224.436 100.566 224.647 99.0632 225.524 99.0897C226.275 99.1126 227.166 100.247 227.245 101.392C227.413 103.805 223.852 104.469 223.228 107.725C222.876 109.563 226.43 108.8 227.938 106.809L227.944 106.805Z" fill="#090814"/>
<path d="M83.1879 342.177C83.0777 347.444 83.8028 352.695 85.336 357.734C85.3897 357.917 85.4542 358.099 85.5186 358.283H117.116C116.665 356.052 115.947 353.883 114.98 351.823C112.351 346.225 108.057 341.434 103.818 336.676C97.9787 330.119 92.279 323.617 91.3763 315.09C89.0618 318.629 87.2145 322.454 85.8807 326.47C87.5136 327.076 89.0122 327.998 90.2919 329.183C90.6459 329.517 91.0219 330.001 90.8393 330.464C90.6674 330.851 90.1953 330.98 89.7768 331.067C88.7681 331.261 87.7589 331.454 86.7502 331.637C85.9558 331.799 85.1507 331.951 84.3461 332.1C83.6386 335.414 83.2504 338.788 83.187 342.177H83.1879Z" fill="#F2F2F2"/>
<path d="M56.6445 338.689C61.7105 341.779 64.9309 346.559 67.5601 351.909C69.8488 352.433 71.9614 353.547 73.689 355.141C74.0538 355.475 74.4297 355.96 74.2364 356.422C74.0753 356.81 73.5924 356.939 73.1739 357.025C72.1755 357.219 71.156 357.413 70.1576 357.596C70.2543 357.82 70.3509 358.059 70.4471 358.285H103.936C102.416 356.228 100.732 354.299 98.9019 352.514C98.5049 352.116 98.0963 351.739 97.6783 351.352C93.4094 347.482 88.5077 344.379 83.1883 342.179C74.8084 338.665 65.6444 337.46 56.6445 338.689Z" fill="#F2F2F2"/>
<path d="M98.3542 358.283H128.172C128.334 355.888 128.319 353.484 128.127 351.091C127.482 343.684 125.243 336.506 121.564 330.05C117.886 323.595 112.856 318.017 106.821 313.699C108.367 319.221 107.572 324.713 105.962 330.225C106.186 330.3 106.413 330.365 106.617 330.449C108.25 331.056 109.748 331.978 111.028 333.162C111.382 333.496 111.758 333.981 111.576 334.444C111.414 334.831 110.932 334.96 110.513 335.046C109.504 335.24 108.495 335.434 107.497 335.617C106.692 335.778 105.886 335.931 105.081 336.09C104.705 336.155 104.329 336.231 103.954 336.305C103.9 336.435 103.868 336.553 103.814 336.672C101.925 341.893 99.8642 347.158 98.898 352.508C98.6593 353.851 98.495 355.206 98.4057 356.567C98.3757 357.142 98.3542 357.712 98.3542 358.283Z" fill="#F2F2F2"/>
<path d="M104.1 26.8686L102.651 26.1055L102.872 25.684L104.11 26.3376L104.203 20.9761V20.8626V20.8424L104.251 18.0921L104.318 14.216L104.37 11.2377H104.397L104.447 13.9866L104.522 18.0418L104.573 20.8401V20.8635L104.588 21.662L104.881 37.6772V37.7831L103.901 38.0591V37.9523L104.1 26.8686Z" fill="#3F3D56"/>
<path d="M25.6139 83.545C21.3125 83.545 17.8256 80.0475 17.8256 75.7331C17.8256 71.4188 21.3125 67.9213 25.6139 67.9213C29.9153 67.9213 33.4022 71.4188 33.4022 75.7331C33.4022 80.0475 29.9153 83.545 25.6139 83.545Z" fill="white"/>
<path d="M61.2326 128.959C58.4154 128.959 56.1316 126.669 56.1316 123.843C56.1316 121.017 58.4154 118.727 61.2326 118.727C64.0497 118.727 66.3335 121.017 66.3335 123.843C66.3335 126.669 64.0497 128.959 61.2326 128.959Z" fill="#6C63FF"/>
<path d="M86.2597 73.1144C87.288 73.1145 88.2932 72.8087 89.1483 72.2358C90.0033 71.6628 90.6697 70.8484 91.0633 69.8955C91.4568 68.9426 91.5598 67.8941 91.3592 66.8825C91.1586 65.871 90.6635 64.9418 89.9364 64.2125C89.2093 63.4831 88.2829 62.9865 87.2743 62.7853C86.2658 62.5841 85.2204 62.6874 84.2704 63.0821C83.3204 63.4769 82.5085 64.1453 81.9372 65.0029C81.366 65.8606 81.0611 66.8688 81.0612 67.9002C81.0629 69.2826 81.6111 70.6079 82.5857 71.5854C83.5602 72.5628 84.8815 73.1127 86.2597 73.1144Z" fill="#6C63FF"/>
<path d="M99.4556 103.683C100.034 103.683 100.602 103.521 101.094 103.216C101.586 102.911 101.984 102.474 102.243 101.955C102.502 101.436 102.613 100.855 102.561 100.277C102.51 99.6983 102.299 99.1458 101.953 98.6808L93.635 87.5037C93.3912 87.1711 93.0843 86.8902 92.7318 86.6772C92.3793 86.4642 91.9883 86.3232 91.5813 86.2624C91.1742 86.2016 90.7592 86.2222 90.3602 86.323C89.9611 86.4238 89.5859 86.6028 89.2561 86.8497C88.9263 87.0966 88.6485 87.4065 88.4386 87.7616C88.2288 88.1166 88.0911 88.5098 88.0334 88.9185C87.9757 89.3272 87.9992 89.7433 88.1026 90.1428C88.206 90.5424 88.3871 90.9174 88.6357 91.2464L96.9539 102.424C97.244 102.815 97.6213 103.132 98.0557 103.351C98.4901 103.57 98.9695 103.683 99.4556 103.683Z" fill="#6C63FF"/>
<path d="M80.0189 104.402C80.5987 104.403 81.1672 104.241 81.6604 103.935C82.1537 103.63 82.5523 103.192 82.8115 102.672L86.7439 94.7827L92.6245 88.8844C92.9759 88.5321 93.2383 88.1006 93.3899 87.626C93.5414 87.1513 93.5777 86.6473 93.4958 86.1557L91.4161 73.6409C91.2755 72.8267 90.8195 72.1014 90.1476 71.6232C89.4756 71.1451 88.6424 70.953 87.8298 71.0888C87.0171 71.2247 86.2911 71.6775 85.8101 72.3484C85.3291 73.0193 85.1323 73.8538 85.2626 74.6698L87.0782 85.5986L81.9764 90.7159C81.7393 90.9536 81.542 91.2281 81.392 91.5288L77.2317 99.8734C76.9942 100.35 76.8821 100.88 76.906 101.413C76.9298 101.945 77.0889 102.463 77.3681 102.917C77.6474 103.37 78.0374 103.745 78.5014 104.005C78.9654 104.265 79.4875 104.401 80.0189 104.402Z" fill="#6C63FF"/>
</g>
<defs>
<clipPath id="clip0_58_145">
<rect width="305.1" height="359.1" fill="white" transform="matrix(-1 0 0 1 306 0)"/>
</clipPath>
</defs>
</svg>
